STARTFONT 2.1
FONT -FontForge-PP Fraktion Mono-Regular-R-Normal--28-200-100-100-P-162-ISO10646-1
SIZE 20 100 100
FONTBOUNDINGBOX 30 40 -13 -8
COMMENT "Generated by fontforge, http://fontforge.sourceforge.net"
COMMENT "Copyright \(c\) 2020 by Juri Zaech. All rights reserved."
STARTPROPERTIES 40
FOUNDRY "FontForge"
FAMILY_NAME "PP Fraktion Mono"
WEIGHT_NAME "Regular"
SLANT "R"
SETWIDTH_NAME "Normal"
ADD_STYLE_NAME ""
PIXEL_SIZE 28
POINT_SIZE 200
RESOLUTION_X 100
RESOLUTION_Y 100
SPACING "P"
AVERAGE_WIDTH 162
CHARSET_REGISTRY "ISO10646"
CHARSET_ENCODING "1"
FONTNAME_REGISTRY ""
CHARSET_COLLECTIONS "ISO8859-2 ISO8859-9 ISO8859-4 ISO10646-1"
FONT_NAME "PPFraktionMono-Regular"
FACE_NAME "PP Fraktion Mono Regular"
COPYRIGHT "Copyright \(c\) 2020 by Juri Zaech. All rights reserved."
FONT_VERSION "001.100"
FONT_ASCENT 22
FONT_DESCENT 6
UNDERLINE_POSITION -1
UNDERLINE_THICKNESS 2
X_HEIGHT 13
CAP_HEIGHT 18
RAW_ASCENT 800
RAW_DESCENT 200
NORM_SPACE 17
RELATIVE_WEIGHT 40
RELATIVE_SETWIDTH 50
SUPERSCRIPT_X 0
SUPERSCRIPT_Y 9
SUPERSCRIPT_SIZE 16
SUBSCRIPT_X 0
SUBSCRIPT_Y 2
SUBSCRIPT_SIZE 16
FIGURE_WIDTH 17
AVG_LOWERCASE_WIDTH 170
AVG_UPPERCASE_WIDTH 170
ENDPROPERTIES
CHARS 604
STARTCHAR space
ENCODING 32
SWIDTH 600 0
DWIDTH 17 0
BBX 1 1 0 0
BITMAP
00
ENDCHAR
STARTCHAR exclam
ENCODING 33
SWIDTH 600 0
DWIDTH 17 0
BBX 3 19 7 0
BITMAP
E0
E0
E0
E0
E0
E0
C0
C0
C0
C0
C0
C0
40
00
00
00
E0
E0
E0
ENDCHAR
STARTCHAR quotedbl
ENCODING 34
SWIDTH 600 0
DWIDTH 17 0
BBX 7 8 5 11
BITMAP
C6
C6
C6
C6
C6
C6
C6
C4
ENDCHAR
STARTCHAR numbersign
ENCODING 35
SWIDTH 600 0
DWIDTH 17 0
BBX 14 19 1 0
BITMAP
0618
0618
0610
0630
0430
3FFC
7FFC
0C20
0C60
0C60
0860
1860
FFF8
FFF8
18C0
10C0
30C0
30C0
3180
ENDCHAR
STARTCHAR dollar
ENCODING 36
SWIDTH 600 0
DWIDTH 17 0
BBX 13 23 2 -2
BITMAP
0200
0200
1F80
3FE0
7270
E230
C230
C230
6200
7200
3E00
0FC0
03E0
0270
0238
C218
C218
C238
6270
3FE0
1FC0
0200
0200
ENDCHAR
STARTCHAR percent
ENCODING 37
SWIDTH 600 0
DWIDTH 17 0
BBX 15 19 1 0
BITMAP
3C06
7E0C
C30C
C118
C118
C330
7630
3C60
0000
0000
0000
0878
19FC
1184
3306
2106
6184
41FC
C078
ENDCHAR
STARTCHAR ampersand
ENCODING 38
SWIDTH 600 0
DWIDTH 17 0
BBX 15 19 1 0
BITMAP
0F80
1FC0
18C0
30C0
30C0
18C0
1980
0F80
0E00
1F06
338C
619C
E0D8
C070
C070
C0F8
61D8
7F8C
3E0E
ENDCHAR
STARTCHAR quotesingle
ENCODING 39
SWIDTH 600 0
DWIDTH 17 0
BBX 2 8 7 11
BITMAP
C0
C0
C0
C0
C0
C0
40
40
ENDCHAR
STARTCHAR parenleft
ENCODING 40
SWIDTH 600 0
DWIDTH 17 0
BBX 8 25 5 -4
BITMAP
03
0F
1C
38
70
60
E0
C0
C0
C0
C0
C0
C0
C0
C0
C0
C0
C0
60
60
30
38
1E
0F
01
ENDCHAR
STARTCHAR parenright
ENCODING 41
SWIDTH 600 0
DWIDTH 17 0
BBX 8 25 4 -4
BITMAP
C0
F0
38
1C
0C
06
06
03
03
03
03
03
03
03
03
03
03
07
06
06
0C
1C
78
E0
80
ENDCHAR
STARTCHAR asterisk
ENCODING 42
SWIDTH 600 0
DWIDTH 17 0
BBX 11 10 3 10
BITMAP
0C00
0400
0400
C440
FFE0
1E00
0E00
1B00
3180
2180
ENDCHAR
STARTCHAR plus
ENCODING 43
SWIDTH 600 0
DWIDTH 17 0
BBX 12 12 2 3
BITMAP
0600
0600
0600
0600
0600
FFF0
FFF0
0600
0600
0600
0600
0600
ENDCHAR
STARTCHAR comma
ENCODING 44
SWIDTH 600 0
DWIDTH 17 0
BBX 3 7 7 -4
BITMAP
E0
E0
E0
60
40
40
C0
ENDCHAR
STARTCHAR hyphen
ENCODING 45
SWIDTH 600 0
DWIDTH 17 0
BBX 8 2 4 7
BITMAP
FF
FF
ENDCHAR
STARTCHAR period
ENCODING 46
SWIDTH 600 0
DWIDTH 17 0
BBX 3 3 7 0
BITMAP
E0
E0
E0
ENDCHAR
STARTCHAR slash
ENCODING 47
SWIDTH 600 0
DWIDTH 17 0
BBX 9 25 4 -4
BITMAP
0180
0180
0300
0300
0300
0300
0600
0600
0600
0C00
0C00
0C00
1800
1800
1800
3000
3000
3000
6000
6000
6000
C000
C000
C000
C000
ENDCHAR
STARTCHAR zero
ENCODING 48
SWIDTH 600 0
DWIDTH 17 0
BBX 13 19 2 0
BITMAP
1F80
3FE0
7070
6030
C030
C038
C018
C018
C018
C718
C718
C018
C018
C038
C030
6030
7070
3FE0
1F80
ENDCHAR
STARTCHAR one
ENCODING 49
SWIDTH 600 0
DWIDTH 17 0
BBX 12 19 2 0
BITMAP
0600
0600
0600
0600
7E00
7E00
0600
0600
0600
0600
0600
0600
0600
0600
0600
0600
0600
FFF0
FFF0
ENDCHAR
STARTCHAR two
ENCODING 50
SWIDTH 600 0
DWIDTH 17 0
BBX 13 19 2 0
BITMAP
1F80
3FE0
7070
6030
E038
C018
0038
0030
0070
00E0
03C0
0700
1E00
3800
7000
6000
C000
FFF8
FFF8
ENDCHAR
STARTCHAR three
ENCODING 51
SWIDTH 600 0
DWIDTH 17 0
BBX 13 19 2 0
BITMAP
0F80
3FE0
7070
6030
E030
C030
0030
0070
07C0
07E0
0030
0018
0018
C018
C018
C038
7070
3FE0
1FC0
ENDCHAR
STARTCHAR four
ENCODING 52
SWIDTH 600 0
DWIDTH 17 0
BBX 13 19 2 0
BITMAP
03C0
03C0
07C0
06C0
0CC0
1CC0
18C0
30C0
30C0
60C0
E0C0
C0C0
C0C0
FFF8
FFF8
00C0
00C0
00C0
00C0
ENDCHAR
STARTCHAR five
ENCODING 53
SWIDTH 600 0
DWIDTH 17 0
BBX 13 19 2 0
BITMAP
7FF0
7FF0
6000
6000
6000
6000
6000
67C0
7FE0
7070
6038
0018
0018
C018
C018
E038
6070
3FE0
1FC0
ENDCHAR
STARTCHAR six
ENCODING 54
SWIDTH 600 0
DWIDTH 17 0
BBX 13 19 2 0
BITMAP
1F80
3FE0
7070
6030
C030
C030
C000
C780
DFE0
D070
E030
C038
C018
C018
C038
6030
7070
3FE0
1F80
ENDCHAR
STARTCHAR seven
ENCODING 55
SWIDTH 600 0
DWIDTH 17 0
BBX 13 19 2 0
BITMAP
FFF8
FFF8
C038
C030
0070
0060
00C0
00C0
0180
0180
0300
0300
0600
0600
0600
0E00
0C00
0C00
0C00
ENDCHAR
STARTCHAR eight
ENCODING 56
SWIDTH 600 0
DWIDTH 17 0
BBX 13 19 2 0
BITMAP
1F80
3FE0
7070
6030
6030
6030
6030
7070
3DC0
1FC0
70E0
E030
C018
C018
C018
C018
E030
7FF0
1FC0
ENDCHAR
STARTCHAR nine
ENCODING 57
SWIDTH 600 0
DWIDTH 17 0
BBX 13 19 2 0
BITMAP
1F80
3FE0
7070
6030
C030
C018
C018
C038
E038
7058
3FD8
1F18
0018
E018
6038
6030
7070
3FE0
0F80
ENDCHAR
STARTCHAR colon
ENCODING 58
SWIDTH 600 0
DWIDTH 17 0
BBX 3 14 7 0
BITMAP
E0
E0
E0
00
00
00
00
00
00
00
00
E0
E0
E0
ENDCHAR
STARTCHAR semicolon
ENCODING 59
SWIDTH 600 0
DWIDTH 17 0
BBX 3 17 7 -4
BITMAP
E0
E0
E0
00
00
00
00
00
00
00
E0
E0
E0
60
40
40
C0
ENDCHAR
STARTCHAR less
ENCODING 60
SWIDTH 600 0
DWIDTH 17 0
BBX 12 11 2 4
BITMAP
0010
00F0
07E0
1F00
F800
C000
F800
3F00
07C0
00F0
0010
ENDCHAR
STARTCHAR equal
ENCODING 61
SWIDTH 600 0
DWIDTH 17 0
BBX 12 6 2 6
BITMAP
FFF0
FFF0
0000
0000
FFF0
FFF0
ENDCHAR
STARTCHAR greater
ENCODING 62
SWIDTH 600 0
DWIDTH 17 0
BBX 12 11 2 4
BITMAP
C000
F800
3E00
07C0
00F0
0030
00F0
07E0
3F00
F800
C000
ENDCHAR
STARTCHAR question
ENCODING 63
SWIDTH 600 0
DWIDTH 17 0
BBX 11 19 3 0
BITMAP
1F00
7FC0
60C0
C060
C060
C060
00C0
01C0
0380
0600
0600
0C00
0C00
0000
0000
0000
0E00
0E00
0E00
ENDCHAR
STARTCHAR at
ENCODING 64
SWIDTH 600 0
DWIDTH 17 0
BBX 15 22 1 -3
BITMAP
0FE0
3FF0
7018
600C
C00C
C006
C006
C7E6
CCE6
CC66
CC66
CC66
CC66
CC66
CFFC
C778
C000
C000
6008
7018
3FF0
0FC0
ENDCHAR
STARTCHAR A
ENCODING 65
SWIDTH 600 0
DWIDTH 17 0
BBX 14 19 1 0
BITMAP
0380
0780
06C0
06C0
06C0
0C60
0C60
0C60
1860
1830
1830
3FF0
3FF8
3018
3018
601C
600C
600C
E00C
ENDCHAR
STARTCHAR B
ENCODING 66
SWIDTH 600 0
DWIDTH 17 0
BBX 12 19 3 0
BITMAP
FF80
FFC0
C0E0
C060
C060
C060
C060
C0E0
FF80
FFC0
C060
C030
C030
C030
C030
C030
C060
FFE0
FF80
ENDCHAR
STARTCHAR C
ENCODING 67
SWIDTH 600 0
DWIDTH 17 0
BBX 13 19 2 0
BITMAP
1F80
3FE0
7070
6030
C030
C018
C018
C000
C000
C000
C000
C000
C018
C018
C030
6030
7070
3FE0
0F80
ENDCHAR
STARTCHAR D
ENCODING 68
SWIDTH 600 0
DWIDTH 17 0
BBX 13 19 2 0
BITMAP
FF80
FFE0
C070
C030
C030
C018
C018
C018
C018
C018
C018
C018
C018
C018
C030
C030
C070
FFE0
FF80
ENDCHAR
STARTCHAR E
ENCODING 69
SWIDTH 600 0
DWIDTH 17 0
BBX 12 19 3 0
BITMAP
FFF0
FFF0
C000
C000
C000
C000
C000
C000
FFC0
FFC0
C000
C000
C000
C000
C000
C000
C000
FFF0
FFF0
ENDCHAR
STARTCHAR F
ENCODING 70
SWIDTH 600 0
DWIDTH 17 0
BBX 12 19 3 0
BITMAP
FFF0
FFF0
C000
C000
C000
C000
C000
C000
FFC0
FFC0
C000
C000
C000
C000
C000
C000
C000
C000
C000
ENDCHAR
STARTCHAR G
ENCODING 71
SWIDTH 600 0
DWIDTH 17 0
BBX 13 19 2 0
BITMAP
1F80
3FE0
7070
6030
C038
C018
C018
C000
C000
C000
C1F8
C1F8
C018
C018
C038
6038
7058
3FD8
1F98
ENDCHAR
STARTCHAR H
ENCODING 72
SWIDTH 600 0
DWIDTH 17 0
BBX 12 19 2 0
BITMAP
C030
C030
C030
C030
C030
C030
C030
C030
C030
FFF0
FFF0
C030
C030
C030
C030
C030
C030
C030
C030
ENDCHAR
STARTCHAR I
ENCODING 73
SWIDTH 600 0
DWIDTH 17 0
BBX 12 19 2 0
BITMAP
FFF0
FFF0
0600
0600
0600
0600
0600
0600
0600
0600
0600
0600
0600
0600
0600
0600
0600
FFF0
FFF0
ENDCHAR
STARTCHAR J
ENCODING 74
SWIDTH 600 0
DWIDTH 17 0
BBX 12 19 2 0
BITMAP
1FF0
1FF0
0030
0030
0030
0030
0030
0030
0030
0030
C030
C030
C030
C030
E030
6030
7070
3FE0
0F80
ENDCHAR
STARTCHAR K
ENCODING 75
SWIDTH 600 0
DWIDTH 17 0
BBX 12 19 3 0
BITMAP
C070
C060
C0C0
C1C0
C380
C300
C600
CE00
CE00
DE00
F300
F300
E180
C1C0
C0C0
C0E0
C060
C030
C030
ENDCHAR
STARTCHAR L
ENCODING 76
SWIDTH 600 0
DWIDTH 17 0
BBX 12 19 3 0
BITMAP
C000
C000
C000
C000
C000
C000
C000
C000
C000
C000
C000
C000
C000
C000
C000
C000
C000
FFF0
FFF0
ENDCHAR
STARTCHAR M
ENCODING 77
SWIDTH 600 0
DWIDTH 17 0
BBX 13 19 2 0
BITMAP
E038
E078
F078
F058
D8D8
D898
C998
CD98
CD18
C718
C718
C218
C018
C018
C018
C018
C018
C018
C018
ENDCHAR
STARTCHAR N
ENCODING 78
SWIDTH 600 0
DWIDTH 17 0
BBX 11 19 3 0
BITMAP
E060
E060
F060
F060
F060
D860
D860
CC60
CC60
CC60
C660
C660
C360
C360
C360
C1E0
C1E0
C0E0
C0E0
ENDCHAR
STARTCHAR O
ENCODING 79
SWIDTH 600 0
DWIDTH 17 0
BBX 13 19 2 0
BITMAP
1F80
3FE0
7070
6030
C030
C018
C018
C018
C018
C018
C018
C018
C018
C018
C030
6030
7070
3FE0
0F80
ENDCHAR
STARTCHAR P
ENCODING 80
SWIDTH 600 0
DWIDTH 17 0
BBX 12 19 3 0
BITMAP
FF80
FFE0
C060
C030
C030
C030
C030
C030
C030
C060
FFE0
FF80
C000
C000
C000
C000
C000
C000
C000
ENDCHAR
STARTCHAR Q
ENCODING 81
SWIDTH 600 0
DWIDTH 17 0
BBX 13 24 2 -5
BITMAP
1F80
3FE0
7070
6030
C030
C018
C018
C018
C018
C018
C018
C018
C018
C018
C038
6030
7070
3FE0
1FC0
0600
0600
0200
03E0
01E0
ENDCHAR
STARTCHAR R
ENCODING 82
SWIDTH 600 0
DWIDTH 17 0
BBX 12 19 3 0
BITMAP
FF80
FFC0
C060
C070
C030
C030
C030
C030
C070
C0E0
FFC0
FF80
C600
C300
C380
C180
C0C0
C0E0
C060
ENDCHAR
STARTCHAR S
ENCODING 83
SWIDTH 600 0
DWIDTH 17 0
BBX 13 19 2 0
BITMAP
1F80
3FE0
7070
E030
C030
C030
6000
7000
3E00
0FC0
01E0
0070
0038
C018
C018
C038
6070
3FE0
1FC0
ENDCHAR
STARTCHAR T
ENCODING 84
SWIDTH 600 0
DWIDTH 17 0
BBX 14 19 1 0
BITMAP
FFFC
FFFC
0300
0300
0300
0300
0300
0300
0300
0300
0300
0300
0300
0300
0300
0300
0300
0300
0300
ENDCHAR
STARTCHAR U
ENCODING 85
SWIDTH 600 0
DWIDTH 17 0
BBX 12 19 2 0
BITMAP
C030
C030
C030
C030
C030
C030
C030
C030
C030
C030
C030
C030
C030
C030
E030
6030
7070
3FE0
0F80
ENDCHAR
STARTCHAR V
ENCODING 86
SWIDTH 600 0
DWIDTH 17 0
BBX 14 19 1 0
BITMAP
E00C
600C
600C
7018
3018
3018
3038
3830
1830
1830
1860
0C60
0C60
0C60
0EC0
06C0
06C0
0780
0380
ENDCHAR
STARTCHAR W
ENCODING 87
SWIDTH 600 0
DWIDTH 17 0
BBX 14 19 1 0
BITMAP
C384
C384
C284
C68C
468C
46CC
66CC
64CC
64CC
644C
6C4C
6C4C
6C6C
6C6C
6868
6868
6828
3838
3838
ENDCHAR
STARTCHAR X
ENCODING 88
SWIDTH 600 0
DWIDTH 17 0
BBX 13 19 2 0
BITMAP
C038
6030
7070
3060
38C0
18C0
0D80
0F80
0700
0700
0F00
0D80
19C0
18C0
30E0
7060
6030
E038
C018
ENDCHAR
STARTCHAR Y
ENCODING 89
SWIDTH 600 0
DWIDTH 17 0
BBX 14 19 1 0
BITMAP
E00C
600C
3018
3038
1830
1870
0C60
0CC0
06C0
0780
0380
0300
0300
0300
0300
0300
0300
0300
0300
ENDCHAR
STARTCHAR Z
ENCODING 90
SWIDTH 600 0
DWIDTH 17 0
BBX 13 19 2 0
BITMAP
7FF8
7FF8
0030
0070
0060
00C0
0180
0180
0300
0600
0600
0C00
1800
1800
3000
6000
E000
FFF8
FFF8
ENDCHAR
STARTCHAR bracketleft
ENCODING 91
SWIDTH 600 0
DWIDTH 17 0
BBX 9 25 5 -4
BITMAP
FF80
FF80
E000
E000
E000
E000
E000
E000
E000
E000
E000
E000
E000
E000
E000
E000
E000
E000
E000
E000
E000
E000
E000
FF80
FF80
ENDCHAR
STARTCHAR backslash
ENCODING 92
SWIDTH 600 0
DWIDTH 17 0
BBX 9 25 4 -4
BITMAP
C000
C000
C000
6000
6000
6000
3000
3000
3000
1800
1800
1800
1800
0C00
0C00
0C00
0600
0600
0600
0300
0300
0300
0180
0180
0180
ENDCHAR
STARTCHAR bracketright
ENCODING 93
SWIDTH 600 0
DWIDTH 17 0
BBX 8 25 3 -4
BITMAP
FF
FF
03
03
03
03
03
03
03
03
03
03
03
03
03
03
03
03
03
03
03
03
03
FF
FF
ENDCHAR
STARTCHAR asciicircum
ENCODING 94
SWIDTH 600 0
DWIDTH 17 0
BBX 9 8 4 11
BITMAP
1C00
3C00
3600
3600
6300
6300
C300
C180
ENDCHAR
STARTCHAR underscore
ENCODING 95
SWIDTH 600 0
DWIDTH 17 0
BBX 13 2 2 -5
BITMAP
FFF8
FFF8
ENDCHAR
STARTCHAR grave
ENCODING 96
SWIDTH 600 0
DWIDTH 17 0
BBX 5 4 5 16
BITMAP
E0
60
30
38
ENDCHAR
STARTCHAR a
ENCODING 97
SWIDTH 600 0
DWIDTH 17 0
BBX 14 14 2 0
BITMAP
1F80
3FC0
70E0
6060
E060
0060
03E0
3FE0
E060
C060
C0E0
C1E0
FF7C
3C7C
ENDCHAR
STARTCHAR b
ENCODING 98
SWIDTH 600 0
DWIDTH 17 0
BBX 11 20 3 0
BITMAP
C000
C000
C000
C000
C000
C000
CF80
DFC0
F0E0
C060
C060
C060
C060
C060
C060
C060
C060
E0E0
DFC0
CF80
ENDCHAR
STARTCHAR c
ENCODING 99
SWIDTH 600 0
DWIDTH 17 0
BBX 12 14 2 0
BITMAP
0F80
3FE0
7070
6030
6030
C000
C000
C000
C000
6030
6030
7070
3FE0
0F80
ENDCHAR
STARTCHAR d
ENCODING 100
SWIDTH 600 0
DWIDTH 17 0
BBX 12 20 2 0
BITMAP
0030
0030
0030
0030
0030
0030
1F30
3FB0
70F0
6070
6030
C030
C030
C030
C030
6030
6070
70F0
3FB0
1F30
ENDCHAR
STARTCHAR e
ENCODING 101
SWIDTH 600 0
DWIDTH 17 0
BBX 12 14 2 0
BITMAP
0F80
3FE0
7070
6030
6030
C030
FFF0
FFF0
C000
6000
6030
7070
3FE0
0F80
ENDCHAR
STARTCHAR f
ENCODING 102
SWIDTH 600 0
DWIDTH 17 0
BBX 13 20 2 0
BITMAP
03F8
07F8
0E00
0E00
0E00
0E00
FFF8
FFF8
0E00
0E00
0E00
0E00
0E00
0E00
0E00
0E00
0E00
0E00
FFF8
FFF8
ENDCHAR
STARTCHAR g
ENCODING 103
SWIDTH 600 0
DWIDTH 17 0
BBX 12 20 2 -6
BITMAP
1F30
3FB0
70F0
6070
6030
E030
C030
C030
C030
6030
6070
70F0
3FB0
1F30
0030
0030
0030
0030
7FF0
7FE0
ENDCHAR
STARTCHAR h
ENCODING 104
SWIDTH 600 0
DWIDTH 17 0
BBX 11 20 3 0
BITMAP
C000
C000
C000
C000
C000
C000
CF80
DFC0
F0E0
C060
C060
C060
C060
C060
C060
C060
C060
C060
C060
C060
ENDCHAR
STARTCHAR i
ENCODING 105
SWIDTH 600 0
DWIDTH 17 0
BBX 13 20 3 0
BITMAP
0F00
0F00
0F00
0000
0000
0000
FE00
FE00
0600
0600
0600
0600
0600
0600
0600
0600
0600
0600
03F8
01F8
ENDCHAR
STARTCHAR j
ENCODING 106
SWIDTH 600 0
DWIDTH 17 0
BBX 11 26 2 -6
BITMAP
01E0
01E0
01E0
0000
0000
0000
FFC0
FFC0
00C0
00C0
00C0
00C0
00C0
00C0
00C0
00C0
00C0
00C0
00C0
00C0
00C0
00C0
00C0
00C0
FFC0
FF80
ENDCHAR
STARTCHAR k
ENCODING 107
SWIDTH 600 0
DWIDTH 17 0
BBX 12 20 3 0
BITMAP
C000
C000
C000
C000
C000
C000
C060
C0C0
C180
C300
C600
CE00
DE00
F300
E380
C180
C0C0
C0E0
C060
C030
ENDCHAR
STARTCHAR l
ENCODING 108
SWIDTH 600 0
DWIDTH 17 0
BBX 14 20 1 0
BITMAP
FF00
FF00
0300
0300
0300
0300
0300
0300
0300
0300
0300
0300
0300
0300
0300
0300
0300
0300
03FC
01FC
ENDCHAR
STARTCHAR m
ENCODING 109
SWIDTH 600 0
DWIDTH 17 0
BBX 14 14 1 0
BITMAP
CE38
DF7C
E38C
C38C
C30C
C30C
C30C
C30C
C30C
C30C
C30C
C30C
C30C
C30C
ENDCHAR
STARTCHAR n
ENCODING 110
SWIDTH 600 0
DWIDTH 17 0
BBX 11 14 3 0
BITMAP
CF80
DFC0
F0E0
C060
C060
C060
C060
C060
C060
C060
C060
C060
C060
C060
ENDCHAR
STARTCHAR o
ENCODING 111
SWIDTH 600 0
DWIDTH 17 0
BBX 12 14 2 0
BITMAP
0F80
3FE0
7060
6030
6030
C030
C030
C030
C030
6030
6030
7070
3FE0
0F80
ENDCHAR
STARTCHAR p
ENCODING 112
SWIDTH 600 0
DWIDTH 17 0
BBX 11 20 3 -6
BITMAP
CF80
DFC0
F0E0
C060
C060
C060
C060
C060
C060
C060
C060
E0E0
DFC0
CF80
C000
C000
C000
C000
C000
C000
ENDCHAR
STARTCHAR q
ENCODING 113
SWIDTH 600 0
DWIDTH 17 0
BBX 12 20 2 -6
BITMAP
1F30
3FB0
70F0
6070
E030
C030
C030
C030
C030
6030
6070
70F0
3FB0
1F30
0030
0030
0030
0030
0030
0030
ENDCHAR
STARTCHAR r
ENCODING 114
SWIDTH 600 0
DWIDTH 17 0
BBX 13 14 2 0
BITMAP
FCF8
FDF8
0E00
0C00
0C00
0C00
0C00
0C00
0C00
0C00
0C00
0C00
FFE0
FFE0
ENDCHAR
STARTCHAR s
ENCODING 115
SWIDTH 600 0
DWIDTH 17 0
BBX 11 14 3 0
BITMAP
3F00
7FC0
C0C0
C060
C060
E000
7F00
07C0
00E0
C060
C060
E060
7FC0
3F80
ENDCHAR
STARTCHAR t
ENCODING 116
SWIDTH 600 0
DWIDTH 17 0
BBX 13 17 1 0
BITMAP
0600
0600
0600
FFF8
FFF8
0600
0600
0600
0600
0600
0600
0600
0600
0600
0600
07F8
03F8
ENDCHAR
STARTCHAR u
ENCODING 117
SWIDTH 600 0
DWIDTH 17 0
BBX 11 14 3 0
BITMAP
C060
C060
C060
C060
C060
C060
C060
C060
C060
C060
C0E0
E1E0
7F60
3E60
ENDCHAR
STARTCHAR v
ENCODING 118
SWIDTH 600 0
DWIDTH 17 0
BBX 13 14 2 0
BITMAP
C018
C030
6030
6030
7060
3060
3060
38C0
18C0
19C0
0D80
0D80
0F00
0700
ENDCHAR
STARTCHAR w
ENCODING 119
SWIDTH 600 0
DWIDTH 17 0
BBX 15 14 1 0
BITMAP
C386
C386
C384
C28C
468C
66CC
66CC
64CC
6448
6C48
2C78
2C78
3878
3838
ENDCHAR
STARTCHAR x
ENCODING 120
SWIDTH 600 0
DWIDTH 17 0
BBX 13 14 2 0
BITMAP
6030
7060
30E0
18C0
0D80
0F00
0700
0F00
0D80
18C0
38C0
3060
6030
E038
ENDCHAR
STARTCHAR y
ENCODING 121
SWIDTH 600 0
DWIDTH 17 0
BBX 13 20 2 -6
BITMAP
C018
C030
6030
6030
7060
3060
3060
38C0
18C0
19C0
0D80
0D80
0F00
0700
0300
0600
0600
0600
FC00
F800
ENDCHAR
STARTCHAR z
ENCODING 122
SWIDTH 600 0
DWIDTH 17 0
BBX 11 14 3 0
BITMAP
FFE0
FFE0
00E0
01C0
0380
0700
0600
0C00
1800
3000
6000
C000
FFE0
FFE0
ENDCHAR
STARTCHAR braceleft
ENCODING 123
SWIDTH 600 0
DWIDTH 17 0
BBX 11 25 3 -4
BITMAP
03E0
07E0
0600
0600
0600
0600
0600
0600
0600
0600
0600
0C00
F800
F800
0C00
0600
0600
0600
0600
0600
0600
0600
0600
07E0
03E0
ENDCHAR
STARTCHAR bar
ENCODING 124
SWIDTH 600 0
DWIDTH 17 0
BBX 2 22 7 -1
BITMAP
C0
C0
C0
C0
C0
C0
C0
C0
C0
C0
C0
C0
C0
C0
C0
C0
C0
C0
C0
C0
C0
C0
ENDCHAR
STARTCHAR braceright
ENCODING 125
SWIDTH 600 0
DWIDTH 17 0
BBX 12 25 2 -4
BITMAP
FC00
FE00
0600
0600
0600
0600
0600
0600
0600
0600
0600
0300
03F0
03F0
0700
0600
0600
0600
0600
0600
0600
0600
0600
FE00
FC00
ENDCHAR
STARTCHAR asciitilde
ENCODING 126
SWIDTH 600 0
DWIDTH 17 0
BBX 12 5 2 7
BITMAP
3800
7E10
6730
C3F0
C1E0
ENDCHAR
STARTCHAR exclamdown
ENCODING 161
SWIDTH 600 0
DWIDTH 17 0
BBX 3 20 7 -6
BITMAP
E0
E0
E0
00
00
00
40
40
C0
C0
C0
C0
C0
C0
E0
E0
E0
E0
E0
E0
ENDCHAR
STARTCHAR cent
ENCODING 162
SWIDTH 600 0
DWIDTH 17 0
BBX 12 19 2 0
BITMAP
0600
0600
0780
1FE0
38E0
6070
6030
E000
C000
C000
C000
E000
6030
6070
38E0
1FE0
0780
0600
0600
ENDCHAR
STARTCHAR sterling
ENCODING 163
SWIDTH 600 0
DWIDTH 17 0
BBX 13 19 2 0
BITMAP
0F80
3FE0
3060
7030
6030
6030
7000
3000
3000
FFC0
FFC0
1800
0C00
0C00
1800
1800
3000
FFF8
FFF8
ENDCHAR
STARTCHAR currency
ENCODING 164
SWIDTH 600 0
DWIDTH 17 0
BBX 13 13 2 3
BITMAP
8010
CFB8
7FF0
3060
6030
4030
4030
6030
6030
3060
7FF0
CFB8
0010
ENDCHAR
STARTCHAR yen
ENCODING 165
SWIDTH 600 0
DWIDTH 17 0
BBX 14 19 1 0
BITMAP
E00C
600C
3018
3038
1830
1860
3C78
3EF8
06C0
0380
3FF8
3FF8
0300
0300
0300
0300
0300
0300
0300
ENDCHAR
STARTCHAR brokenbar
ENCODING 166
SWIDTH 600 0
DWIDTH 17 0
BBX 2 22 7 -1
BITMAP
C0
C0
C0
C0
C0
C0
C0
C0
C0
00
00
00
00
C0
C0
C0
C0
C0
C0
C0
C0
C0
ENDCHAR
STARTCHAR section
ENCODING 167
SWIDTH 600 0
DWIDTH 17 0
BBX 11 19 3 0
BITMAP
1F00
3F80
61C0
60C0
6000
7000
3F00
67C0
C0C0
C060
E060
7CC0
1F00
0380
00C0
60C0
70C0
3F80
1F00
ENDCHAR
STARTCHAR dieresis
ENCODING 168
SWIDTH 600 0
DWIDTH 17 0
BBX 9 3 4 17
BITMAP
E380
E380
E380
ENDCHAR
STARTCHAR copyright
ENCODING 169
SWIDTH 600 0
DWIDTH 17 0
BBX 15 19 1 0
BITMAP
0FE0
3FF0
7018
600C
C004
C786
CFC6
CC66
C806
C806
C806
CC66
CEC6
C786
C004
600C
7018
3FF0
0FE0
ENDCHAR
STARTCHAR ordfeminine
ENCODING 170
SWIDTH 600 0
DWIDTH 17 0
BBX 10 11 4 8
BITMAP
3C00
7E00
C300
C300
0300
7F00
E300
8300
8700
FFC0
7BC0
ENDCHAR
STARTCHAR guillemotleft
ENCODING 171
SWIDTH 600 0
DWIDTH 17 0
BBX 11 11 3 2
BITMAP
1CE0
18C0
3180
7380
6300
C600
6300
7380
3180
18C0
1CE0
ENDCHAR
STARTCHAR logicalnot
ENCODING 172
SWIDTH 600 0
DWIDTH 17 0
BBX 12 6 2 4
BITMAP
FFF0
FFF0
0010
0010
0010
0010
ENDCHAR
STARTCHAR registered
ENCODING 174
SWIDTH 600 0
DWIDTH 17 0
BBX 12 11 2 8
BITMAP
0F80
38E0
6020
4F10
4D90
CF10
4F10
4D10
6020
3060
1F80
ENDCHAR
STARTCHAR macron
ENCODING 175
SWIDTH 600 0
DWIDTH 17 0
BBX 9 2 4 17
BITMAP
FF80
FF80
ENDCHAR
STARTCHAR degree
ENCODING 176
SWIDTH 600 0
DWIDTH 17 0
BBX 9 9 4 11
BITMAP
1C00
7E00
6300
C180
C180
C180
C300
7F00
3C00
ENDCHAR
STARTCHAR plusminus
ENCODING 177
SWIDTH 600 0
DWIDTH 17 0
BBX 12 14 2 3
BITMAP
0600
0600
0600
0600
FFF0
FFF0
0600
0600
0600
0600
0000
0000
FFF0
FFF0
ENDCHAR
STARTCHAR uni00B2
ENCODING 178
SWIDTH 600 0
DWIDTH 17 0
BBX 7 11 5 10
BITMAP
7C
FE
C6
86
06
0C
38
70
C0
FE
FE
ENDCHAR
STARTCHAR uni00B3
ENCODING 179
SWIDTH 600 0
DWIDTH 17 0
BBX 8 12 4 10
BITMAP
08
3E
63
63
03
06
1E
03
C1
43
7F
3E
ENDCHAR
STARTCHAR acute
ENCODING 180
SWIDTH 600 0
DWIDTH 17 0
BBX 5 4 7 16
BITMAP
38
70
60
C0
ENDCHAR
STARTCHAR uni00B5
ENCODING 181
SWIDTH 600 0
DWIDTH 17 0
BBX 11 20 3 -6
BITMAP
C060
C060
C060
C060
C060
C060
C060
C060
C060
C060
C0E0
E1E0
FF60
DE60
C000
C000
C000
C000
C000
C000
ENDCHAR
STARTCHAR paragraph
ENCODING 182
SWIDTH 600 0
DWIDTH 17 0
BBX 15 19 1 0
BITMAP
3F1E
7F3E
FF30
FF30
FF30
FF30
7F30
7F30
1F30
0330
0330
0330
0330
0330
0330
0330
0330
0330
0330
ENDCHAR
STARTCHAR periodcentered
ENCODING 183
SWIDTH 600 0
DWIDTH 17 0
BBX 3 3 7 8
BITMAP
E0
E0
E0
ENDCHAR
STARTCHAR cedilla
ENCODING 184
SWIDTH 600 0
DWIDTH 17 0
BBX 5 6 6 -6
BITMAP
60
40
78
18
F8
F0
ENDCHAR
STARTCHAR uni00B9
ENCODING 185
SWIDTH 600 0
DWIDTH 17 0
BBX 7 11 5 10
BITMAP
10
10
F0
D0
10
10
10
10
10
FE
FE
ENDCHAR
STARTCHAR ordmasculine
ENCODING 186
SWIDTH 600 0
DWIDTH 17 0
BBX 9 11 4 8
BITMAP
3E00
7F00
C300
C180
C180
C180
C180
C180
C300
7F00
3E00
ENDCHAR
STARTCHAR guillemotright
ENCODING 187
SWIDTH 600 0
DWIDTH 17 0
BBX 11 11 3 2
BITMAP
C600
6300
7380
3180
18C0
1CE0
18C0
3180
7180
6300
C700
ENDCHAR
STARTCHAR onequarter
ENCODING 188
SWIDTH 600 0
DWIDTH 17 0
BBX 15 19 1 0
BITMAP
300C
300C
F018
F010
3030
3000
3000
3000
301C
FC3C
FC2C
006C
004C
00CC
198C
318C
31FE
600C
C00C
ENDCHAR
STARTCHAR onehalf
ENCODING 189
SWIDTH 600 0
DWIDTH 17 0
BBX 15 19 1 0
BITMAP
300C
300C
F018
F010
3030
3000
3000
3000
3000
FC7C
FCC6
00C2
0006
0006
181C
3070
3060
60FE
C0FE
ENDCHAR
STARTCHAR threequarters
ENCODING 190
SWIDTH 600 0
DWIDTH 17 0
BBX 15 19 1 0
BITMAP
780C
FC0C
C618
0410
3830
0400
0600
8600
C61C
7C3C
002C
006C
004C
00CC
198C
318C
31FE
600C
C00C
ENDCHAR
STARTCHAR questiondown
ENCODING 191
SWIDTH 600 0
DWIDTH 17 0
BBX 11 20 3 -6
BITMAP
0E00
0E00
0E00
0000
0000
0000
0C00
0C00
0C00
0C00
1C00
3800
7000
E060
C060
C060
C0E0
E1C0
7F80
3F00
ENDCHAR
STARTCHAR Agrave
ENCODING 192
SWIDTH 600 0
DWIDTH 17 0
BBX 14 24 1 0
BITMAP
0E00
0700
0380
0000
0000
0380
0780
06C0
06C0
06C0
0C60
0C60
0C60
1860
1830
1830
3FF0
3FF8
3018
3018
601C
600C
600C
E00C
ENDCHAR
STARTCHAR Aacute
ENCODING 193
SWIDTH 600 0
DWIDTH 17 0
BBX 14 24 1 0
BITMAP
00E0
01C0
0300
0000
0000
0380
0780
06C0
06C0
06C0
0C60
0C60
0C60
1860
1830
1830
3FF0
3FF8
3018
3018
601C
600C
600C
E00C
ENDCHAR
STARTCHAR Acircumflex
ENCODING 194
SWIDTH 600 0
DWIDTH 17 0
BBX 14 25 1 0
BITMAP
0380
07C0
0EE0
1C70
0000
0000
0380
0780
06C0
06C0
06C0
0C60
0C60
0C60
1860
1830
1830
3FF0
3FF8
3018
3018
601C
600C
600C
E00C
ENDCHAR
STARTCHAR Atilde
ENCODING 195
SWIDTH 600 0
DWIDTH 17 0
BBX 14 25 1 0
BITMAP
0E00
1F30
19F0
10E0
0000
0000
0380
0780
06C0
06C0
06C0
0C60
0C60
0C60
1860
1830
1830
3FF0
3FF8
3018
3018
601C
600C
600C
E00C
ENDCHAR
STARTCHAR Adieresis
ENCODING 196
SWIDTH 600 0
DWIDTH 17 0
BBX 14 24 1 0
BITMAP
1C70
1C70
1C70
0000
0000
0380
0780
06C0
06C0
06C0
0C60
0C60
0C60
1860
1830
1830
3FF0
3FF8
3018
3018
601C
600C
600C
E00C
ENDCHAR
STARTCHAR Aring
ENCODING 197
SWIDTH 600 0
DWIDTH 17 0
BBX 14 27 1 0
BITMAP
0380
07C0
0C60
0C60
0C60
07C0
0380
0000
0380
0780
06C0
06C0
06C0
0C60
0C60
0C60
1860
1830
1830
3FF0
3FF8
3018
3018
601C
600C
600C
E00C
ENDCHAR
STARTCHAR AE
ENCODING 198
SWIDTH 600 0
DWIDTH 17 0
BBX 15 19 1 0
BITMAP
0FFE
0FFE
0D80
0980
1980
1980
1980
1980
31FC
31FC
3180
3F80
7F80
6180
6180
6180
6180
C1FE
C1FE
ENDCHAR
STARTCHAR Ccedilla
ENCODING 199
SWIDTH 600 0
DWIDTH 17 0
BBX 13 25 2 -6
BITMAP
1F80
3FE0
7070
6030
C030
C018
C018
C000
C000
C000
C000
C000
C018
C018
C038
6030
7070
3FE0
1F80
0600
0500
0780
0180
0F80
0F00
ENDCHAR
STARTCHAR Egrave
ENCODING 200
SWIDTH 600 0
DWIDTH 17 0
BBX 12 24 3 0
BITMAP
3800
0C00
0600
0000
0000
FFF0
FFF0
C000
C000
C000
C000
C000
C000
FFC0
FFC0
C000
C000
C000
C000
C000
C000
C000
FFF0
FFF0
ENDCHAR
STARTCHAR Eacute
ENCODING 201
SWIDTH 600 0
DWIDTH 17 0
BBX 12 24 3 0
BITMAP
0380
0700
0E00
0000
0000
FFF0
FFF0
C000
C000
C000
C000
C000
C000
FFC0
FFC0
C000
C000
C000
C000
C000
C000
C000
FFF0
FFF0
ENDCHAR
STARTCHAR Ecircumflex
ENCODING 202
SWIDTH 600 0
DWIDTH 17 0
BBX 12 25 3 0
BITMAP
0600
0F00
1B80
70C0
0000
0000
FFF0
FFF0
C000
C000
C000
C000
C000
C000
FFC0
FFC0
C000
C000
C000
C000
C000
C000
C000
FFF0
FFF0
ENDCHAR
STARTCHAR Edieresis
ENCODING 203
SWIDTH 600 0
DWIDTH 17 0
BBX 12 24 3 0
BITMAP
79C0
79C0
79C0
0000
0000
FFF0
FFF0
C000
C000
C000
C000
C000
C000
FFC0
FFC0
C000
C000
C000
C000
C000
C000
C000
FFF0
FFF0
ENDCHAR
STARTCHAR Igrave
ENCODING 204
SWIDTH 600 0
DWIDTH 17 0
BBX 12 24 2 0
BITMAP
1C00
0E00
0700
0000
0000
FFF0
FFF0
0600
0600
0600
0600
0600
0600
0600
0600
0600
0600
0600
0600
0600
0600
0600
FFF0
FFF0
ENDCHAR
STARTCHAR Iacute
ENCODING 205
SWIDTH 600 0
DWIDTH 17 0
BBX 12 24 2 0
BITMAP
01C0
0380
0600
0000
0000
FFF0
FFF0
0600
0600
0600
0600
0600
0600
0600
0600
0600
0600
0600
0600
0600
0600
0600
FFF0
FFF0
ENDCHAR
STARTCHAR Icircumflex
ENCODING 206
SWIDTH 600 0
DWIDTH 17 0
BBX 12 25 2 0
BITMAP
0600
0700
0D80
18C0
0000
0000
FFF0
FFF0
0600
0600
0600
0600
0600
0600
0600
0600
0600
0600
0600
0600
0600
0600
0600
FFF0
FFF0
ENDCHAR
STARTCHAR Idieresis
ENCODING 207
SWIDTH 600 0
DWIDTH 17 0
BBX 12 24 2 0
BITMAP
39C0
39C0
39C0
0000
0000
FFF0
FFF0
0600
0600
0600
0600
0600
0600
0600
0600
0600
0600
0600
0600
0600
0600
0600
FFF0
FFF0
ENDCHAR
STARTCHAR Eth
ENCODING 208
SWIDTH 600 0
DWIDTH 17 0
BBX 15 19 0 0
BITMAP
3FE0
3FF8
301C
300C
300C
3006
3006
3006
3006
FF86
FF86
3006
3006
3006
300E
300C
301C
3FF8
3FE0
ENDCHAR
STARTCHAR Ntilde
ENCODING 209
SWIDTH 600 0
DWIDTH 17 0
BBX 11 25 3 0
BITMAP
3800
7CC0
67C0
4380
0000
0000
E060
E060
F060
F060
F060
D860
D860
CC60
CC60
CC60
C660
C660
C360
C360
C360
C1E0
C1E0
C0E0
C0E0
ENDCHAR
STARTCHAR Ograve
ENCODING 210
SWIDTH 600 0
DWIDTH 17 0
BBX 13 24 2 0
BITMAP
1C00
0E00
0700
0000
0000
1F80
3FE0
7070
6030
C030
C018
C018
C018
C018
C018
C018
C018
C018
C018
C030
6030
7070
3FE0
0F80
ENDCHAR
STARTCHAR Oacute
ENCODING 211
SWIDTH 600 0
DWIDTH 17 0
BBX 13 24 2 0
BITMAP
01C0
0380
0600
0000
0000
1F80
3FE0
7070
6030
C030
C018
C018
C018
C018
C018
C018
C018
C018
C018
C030
6030
7070
3FE0
0F80
ENDCHAR
STARTCHAR Ocircumflex
ENCODING 212
SWIDTH 600 0
DWIDTH 17 0
BBX 13 24 2 0
BITMAP
0700
0F80
38C0
0000
0000
1F80
3FE0
7070
6030
C030
C018
C018
C018
C018
C018
C018
C018
C018
C018
C030
6030
7070
3FE0
0F80
ENDCHAR
STARTCHAR Otilde
ENCODING 213
SWIDTH 600 0
DWIDTH 17 0
BBX 13 24 2 0
BITMAP
1E60
3FE0
63C0
0000
0000
1F80
3FE0
7070
6030
C030
C018
C018
C018
C018
C018
C018
C018
C018
C018
C030
6030
7070
3FE0
0F80
ENDCHAR
STARTCHAR Odieresis
ENCODING 214
SWIDTH 600 0
DWIDTH 17 0
BBX 13 24 2 0
BITMAP
38E0
38E0
38E0
0000
0000
1F80
3FE0
7070
6030
C030
C018
C018
C018
C018
C018
C018
C018
C018
C018
C030
6030
7070
3FE0
0F80
ENDCHAR
STARTCHAR multiply
ENCODING 215
SWIDTH 600 0
DWIDTH 17 0
BBX 10 10 3 4
BITMAP
C0C0
61C0
3380
1F00
0E00
1E00
3B00
7180
E0C0
4040
ENDCHAR
STARTCHAR Oslash
ENCODING 216
SWIDTH 600 0
DWIDTH 17 0
BBX 13 19 2 0
BITMAP
1F98
3FF0
7070
6070
C078
C0D8
C198
C118
C318
C218
C618
CC18
C818
D818
F030
E030
7070
7FE0
CF80
ENDCHAR
STARTCHAR Ugrave
ENCODING 217
SWIDTH 600 0
DWIDTH 17 0
BBX 12 24 2 0
BITMAP
1C00
0E00
0700
0000
0000
C030
C030
C030
C030
C030
C030
C030
C030
C030
C030
C030
C030
C030
C030
E030
6030
7070
3FE0
0F80
ENDCHAR
STARTCHAR Uacute
ENCODING 218
SWIDTH 600 0
DWIDTH 17 0
BBX 12 24 2 0
BITMAP
01C0
0380
0600
0000
0000
C030
C030
C030
C030
C030
C030
C030
C030
C030
C030
C030
C030
C030
C030
E030
6030
7070
3FE0
0F80
ENDCHAR
STARTCHAR Ucircumflex
ENCODING 219
SWIDTH 600 0
DWIDTH 17 0
BBX 12 25 2 0
BITMAP
0700
0F80
1DC0
38E0
0000
0000
C030
C030
C030
C030
C030
C030
C030
C030
C030
C030
C030
C030
C030
C030
E030
6030
7070
3FE0
0F80
ENDCHAR
STARTCHAR Udieresis
ENCODING 220
SWIDTH 600 0
DWIDTH 17 0
BBX 12 24 2 0
BITMAP
38E0
38E0
38E0
0000
0000
C030
C030
C030
C030
C030
C030
C030
C030
C030
C030
C030
C030
C030
C030
E030
6030
7070
3FE0
0F80
ENDCHAR
STARTCHAR Yacute
ENCODING 221
SWIDTH 600 0
DWIDTH 17 0
BBX 14 24 1 0
BITMAP
00E0
01C0
0300
0000
0000
E00C
600C
3018
3038
1830
1870
0C60
0CC0
06C0
0780
0380
0300
0300
0300
0300
0300
0300
0300
0300
ENDCHAR
STARTCHAR Thorn
ENCODING 222
SWIDTH 600 0
DWIDTH 17 0
BBX 12 19 3 0
BITMAP
C000
C000
C000
C000
FF80
FFE0
C070
C030
C030
C030
C030
C030
C070
FFE0
FF80
C000
C000
C000
C000
ENDCHAR
STARTCHAR germandbls
ENCODING 223
SWIDTH 600 0
DWIDTH 17 0
BBX 12 19 3 0
BITMAP
3F00
7F80
E1C0
C0C0
C0C0
C0C0
C0C0
CF80
CF80
C0E0
C060
C070
C030
C030
C030
C060
C0E0
CFC0
CF80
ENDCHAR
STARTCHAR agrave
ENCODING 224
SWIDTH 600 0
DWIDTH 17 0
BBX 14 20 2 0
BITMAP
1800
1C00
0E00
0700
0000
0000
1F80
3FC0
70E0
6060
E060
0060
03E0
3FE0
E060
C060
C0E0
C1E0
FF7C
3C7C
ENDCHAR
STARTCHAR aacute
ENCODING 225
SWIDTH 600 0
DWIDTH 17 0
BBX 14 20 2 0
BITMAP
01C0
0380
0700
0600
0000
0000
1F80
3FC0
70E0
6060
E060
0060
03E0
3FE0
E060
C060
C0E0
C1E0
FF7C
3C7C
ENDCHAR
STARTCHAR acircumflex
ENCODING 226
SWIDTH 600 0
DWIDTH 17 0
BBX 14 20 2 0
BITMAP
0600
0F00
1F80
39C0
0000
0000
1F80
3FC0
70E0
6060
E060
0060
03E0
3FE0
E060
C060
C0E0
C1E0
FF7C
3C7C
ENDCHAR
STARTCHAR atilde
ENCODING 227
SWIDTH 600 0
DWIDTH 17 0
BBX 14 20 2 0
BITMAP
3C60
3E60
6660
63C0
0180
0000
1F80
3FC0
70E0
6060
E060
0060
03E0
3FE0
E060
C060
C0E0
C1E0
7F7C
3C7C
ENDCHAR
STARTCHAR adieresis
ENCODING 228
SWIDTH 600 0
DWIDTH 17 0
BBX 14 20 2 0
BITMAP
39C0
39C0
39C0
0000
0000
0000
1F80
3FC0
70E0
6060
E060
0060
07E0
7FE0
E060
C060
C0E0
C1E0
7F7C
3C7C
ENDCHAR
STARTCHAR aring
ENCODING 229
SWIDTH 600 0
DWIDTH 17 0
BBX 14 23 2 0
BITMAP
0600
1F80
1980
1080
1880
1F80
0F00
0000
0000
1F80
3FC0
70E0
6060
E060
0060
07E0
7FE0
E060
C060
C0E0
C1E0
7F7C
3C7C
ENDCHAR
STARTCHAR ae
ENCODING 230
SWIDTH 600 0
DWIDTH 17 0
BBX 15 14 1 0
BITMAP
3C78
7EFC
628E
C386
C386
0306
07FE
7FFE
E300
C300
C386
C68C
FCFC
7878
ENDCHAR
STARTCHAR ccedilla
ENCODING 231
SWIDTH 600 0
DWIDTH 17 0
BBX 12 20 2 -6
BITMAP
0F80
3FE0
7070
6030
6030
C000
C000
C000
C000
6030
6030
7070
3FE0
0F80
0600
0580
0780
0180
0F80
0F00
ENDCHAR
STARTCHAR egrave
ENCODING 232
SWIDTH 600 0
DWIDTH 17 0
BBX 12 20 2 0
BITMAP
1C00
0E00
0600
0700
0000
0000
0F80
3FE0
7070
6030
6030
C030
FFF0
FFF0
C000
6000
6030
7070
3FE0
0F80
ENDCHAR
STARTCHAR eacute
ENCODING 233
SWIDTH 600 0
DWIDTH 17 0
BBX 12 20 2 0
BITMAP
01C0
0380
0300
0600
0000
0000
0F80
3FE0
7070
6030
6030
C030
FFF0
FFF0
C000
6000
6030
7070
3FE0
0F80
ENDCHAR
STARTCHAR ecircumflex
ENCODING 234
SWIDTH 600 0
DWIDTH 17 0
BBX 12 20 2 0
BITMAP
0700
0F80
1D80
18C0
0000
0000
0F80
3FE0
7070
6030
6030
C030
FFF0
FFF0
C000
6000
6030
7070
3FE0
0F80
ENDCHAR
STARTCHAR edieresis
ENCODING 235
SWIDTH 600 0
DWIDTH 17 0
BBX 12 20 2 0
BITMAP
38E0
38E0
38E0
0000
0000
0000
0F80
3FE0
7070
6030
6030
C030
FFF0
FFF0
C000
6000
6030
7070
3FE0
0F80
ENDCHAR
STARTCHAR igrave
ENCODING 236
SWIDTH 600 0
DWIDTH 17 0
BBX 13 20 3 0
BITMAP
1C00
0E00
0600
0300
0000
0000
FE00
FE00
0600
0600
0600
0600
0600
0600
0600
0600
0600
0600
03F8
01F8
ENDCHAR
STARTCHAR iacute
ENCODING 237
SWIDTH 600 0
DWIDTH 17 0
BBX 13 20 3 0
BITMAP
0380
0300
0700
0E00
0000
0000
FE00
FE00
0600
0600
0600
0600
0600
0600
0600
0600
0600
0600
03F8
01F8
ENDCHAR
STARTCHAR icircumflex
ENCODING 238
SWIDTH 600 0
DWIDTH 17 0
BBX 13 20 3 0
BITMAP
0F00
0F80
1980
30C0
0000
0000
FE00
FE00
0600
0600
0600
0600
0600
0600
0600
0600
0600
0600
03F8
01F8
ENDCHAR
STARTCHAR idieresis
ENCODING 239
SWIDTH 600 0
DWIDTH 17 0
BBX 13 20 3 0
BITMAP
39E0
39E0
39E0
0000
0000
0000
FE00
FE00
0600
0600
0600
0600
0600
0600
0600
0600
0600
0600
03F8
01F8
ENDCHAR
STARTCHAR eth
ENCODING 240
SWIDTH 600 0
DWIDTH 17 0
BBX 12 20 2 0
BITMAP
0C00
0700
0380
01F0
03E0
0360
0060
0030
1F30
3FB0
7070
E030
C030
C030
C030
C030
E030
7060
3FE0
1F80
ENDCHAR
STARTCHAR ntilde
ENCODING 241
SWIDTH 600 0
DWIDTH 17 0
BBX 11 20 3 0
BITMAP
3840
7CC0
66C0
43C0
0080
0000
CF80
DFC0
F0E0
C060
C060
C060
C060
C060
C060
C060
C060
C060
C060
C060
ENDCHAR
STARTCHAR ograve
ENCODING 242
SWIDTH 600 0
DWIDTH 17 0
BBX 12 20 2 0
BITMAP
1C00
0E00
0600
0700
0000
0000
0F80
3FE0
7060
6030
6030
C030
C030
C030
C030
6030
6030
7070
3FE0
0F80
ENDCHAR
STARTCHAR oacute
ENCODING 243
SWIDTH 600 0
DWIDTH 17 0
BBX 12 20 2 0
BITMAP
01C0
0380
0300
0600
0000
0000
0F80
3FE0
7060
6030
6030
C030
C030
C030
C030
6030
6030
7070
3FE0
0F80
ENDCHAR
STARTCHAR ocircumflex
ENCODING 244
SWIDTH 600 0
DWIDTH 17 0
BBX 12 20 2 0
BITMAP
0700
0F80
1D80
18C0
0000
0000
0F80
3FE0
7060
6030
6030
C030
C030
C030
C030
6030
6030
7070
3FE0
0F80
ENDCHAR
STARTCHAR otilde
ENCODING 245
SWIDTH 600 0
DWIDTH 17 0
BBX 12 20 2 0
BITMAP
1C60
3E60
3360
21E0
00C0
0000
0F80
3FE0
7060
6030
6030
C030
C030
C030
C030
6030
6030
7070
3FE0
0F80
ENDCHAR
STARTCHAR odieresis
ENCODING 246
SWIDTH 600 0
DWIDTH 17 0
BBX 12 20 2 0
BITMAP
38E0
38E0
38E0
0000
0000
0000
0F80
3FE0
7060
6030
6030
C030
C030
C030
C030
6030
6030
7070
3FE0
0F80
ENDCHAR
STARTCHAR divide
ENCODING 247
SWIDTH 600 0
DWIDTH 17 0
BBX 12 14 2 2
BITMAP
0700
0700
0700
0000
0000
0000
FFF0
FFF0
0000
0000
0000
0700
0700
0700
ENDCHAR
STARTCHAR oslash
ENCODING 248
SWIDTH 600 0
DWIDTH 17 0
BBX 12 14 2 0
BITMAP
0FB0
3FE0
7070
60F0
61B0
C130
C330
C630
C430
6830
7830
7060
3FE0
6F80
ENDCHAR
STARTCHAR ugrave
ENCODING 249
SWIDTH 600 0
DWIDTH 17 0
BBX 11 20 3 0
BITMAP
3800
1C00
0C00
0600
0000
0000
C060
C060
C060
C060
C060
C060
C060
C060
C060
C060
C0E0
E1E0
7F60
3E60
ENDCHAR
STARTCHAR uacute
ENCODING 250
SWIDTH 600 0
DWIDTH 17 0
BBX 11 20 3 0
BITMAP
0300
0700
0E00
1C00
0000
0000
C060
C060
C060
C060
C060
C060
C060
C060
C060
C060
C0E0
E1E0
7F60
3E60
ENDCHAR
STARTCHAR ucircumflex
ENCODING 251
SWIDTH 600 0
DWIDTH 17 0
BBX 11 20 3 0
BITMAP
0E00
1F00
3B80
7180
0000
0000
C060
C060
C060
C060
C060
C060
C060
C060
C060
C060
C0E0
E1E0
7F60
3E60
ENDCHAR
STARTCHAR udieresis
ENCODING 252
SWIDTH 600 0
DWIDTH 17 0
BBX 11 20 3 0
BITMAP
71C0
71C0
71C0
0000
0000
0000
C060
C060
C060
C060
C060
C060
C060
C060
C060
C060
C0E0
E1E0
7F60
3E60
ENDCHAR
STARTCHAR yacute
ENCODING 253
SWIDTH 600 0
DWIDTH 17 0
BBX 13 26 2 -6
BITMAP
01C0
0380
0700
0600
0000
0000
C018
C030
6030
6030
7060
3060
3060
38C0
18C0
19C0
0D80
0D80
0F00
0700
0300
0600
0600
0600
FC00
F800
ENDCHAR
STARTCHAR thorn
ENCODING 254
SWIDTH 600 0
DWIDTH 17 0
BBX 11 26 3 -6
BITMAP
C000
C000
C000
C000
C000
C000
CF80
DFC0
F0E0
C060
C060
C060
C060
C060
C060
C060
C060
E0E0
DFC0
CF80
C000
C000
C000
C000
C000
C000
ENDCHAR
STARTCHAR ydieresis
ENCODING 255
SWIDTH 600 0
DWIDTH 17 0
BBX 13 26 2 -6
BITMAP
38E0
38E0
38E0
0000
0000
0000
C018
C030
6030
6030
7060
3060
3060
38C0
18C0
19C0
0D80
0D80
0F00
0700
0300
0600
0600
0600
FC00
F800
ENDCHAR
STARTCHAR Amacron
ENCODING 256
SWIDTH 600 0
DWIDTH 17 0
BBX 14 24 1 0
BITMAP
1FF0
1FF0
0000
0000
0000
0380
0780
06C0
06C0
06C0
0C60
0C60
0C60
1860
1830
1830
3FF0
3FF8
3018
3018
601C
600C
600C
E00C
ENDCHAR
STARTCHAR amacron
ENCODING 257
SWIDTH 600 0
DWIDTH 17 0
BBX 14 19 2 0
BITMAP
3FC0
3FC0
0000
0000
0000
1F80
3FC0
70E0
6060
E060
0060
03E0
3FE0
E060
C060
C0E0
C1E0
FF7C
3C7C
ENDCHAR
STARTCHAR Abreve
ENCODING 258
SWIDTH 600 0
DWIDTH 17 0
BBX 14 25 1 0
BITMAP
1820
0C60
0FE0
07C0
0000
0000
0380
0780
06C0
06C0
06C0
0C60
0C60
0C60
1860
1830
1830
3FF0
3FF8
3018
3018
601C
600C
600C
E00C
ENDCHAR
STARTCHAR abreve
ENCODING 259
SWIDTH 600 0
DWIDTH 17 0
BBX 14 20 2 0
BITMAP
30C0
30C0
1F80
0F00
0000
0000
1F80
3FC0
70E0
6060
E060
0060
07E0
7FE0
E060
C060
C0E0
C1E0
7F7C
3C7C
ENDCHAR
STARTCHAR Aogonek
ENCODING 260
SWIDTH 600 0
DWIDTH 17 0
BBX 15 25 1 -6
BITMAP
0380
0780
06C0
06C0
06C0
0C60
0C60
0C60
1860
1830
1830
3FF0
3FF8
3018
3018
601C
600C
600C
E00C
000C
0018
0030
0030
003E
003E
ENDCHAR
STARTCHAR aogonek
ENCODING 261
SWIDTH 600 0
DWIDTH 17 0
BBX 14 20 2 -6
BITMAP
1F80
3FC0
70E0
6060
E060
0060
03E0
3FE0
E060
C060
C0E0
C1E0
FF7C
3C7C
0018
0030
0060
0060
007C
003C
ENDCHAR
STARTCHAR Cacute
ENCODING 262
SWIDTH 600 0
DWIDTH 17 0
BBX 13 24 2 0
BITMAP
01C0
0380
0600
0000
0000
1F80
3FE0
7070
6030
C030
C018
C018
C000
C000
C000
C000
C000
C018
C018
C030
6030
7070
3FE0
0F80
ENDCHAR
STARTCHAR cacute
ENCODING 263
SWIDTH 600 0
DWIDTH 17 0
BBX 12 20 2 0
BITMAP
01C0
0380
0300
0700
0000
0000
0F80
3FE0
7070
6030
6030
C000
C000
C000
C000
6030
6030
7070
3FE0
0F80
ENDCHAR
STARTCHAR Ccircumflex
ENCODING 264
SWIDTH 600 0
DWIDTH 17 0
BBX 13 24 2 0
BITMAP
0700
0F80
38C0
0000
0000
1F80
3FE0
7070
6030
C030
C018
C018
C000
C000
C000
C000
C000
C018
C018
C030
6030
7070
3FE0
0F80
ENDCHAR
STARTCHAR ccircumflex
ENCODING 265
SWIDTH 600 0
DWIDTH 17 0
BBX 12 20 2 0
BITMAP
0700
0F80
0D80
18C0
0000
0000
0F80
3FE0
7070
6030
6030
C000
C000
C000
C000
6030
6030
7070
3FE0
0F80
ENDCHAR
STARTCHAR Cdotaccent
ENCODING 266
SWIDTH 600 0
DWIDTH 17 0
BBX 13 24 2 0
BITMAP
0700
0700
0700
0000
0000
1F80
3FE0
7070
6030
C030
C018
C018
C000
C000
C000
C000
C000
C018
C018
C030
6030
7070
3FE0
0F80
ENDCHAR
STARTCHAR cdotaccent
ENCODING 267
SWIDTH 600 0
DWIDTH 17 0
BBX 12 20 2 0
BITMAP
0700
0700
0700
0000
0000
0000
0F80
3FE0
7070
6030
6030
C000
C000
C000
C000
6030
6030
7070
3FE0
0F80
ENDCHAR
STARTCHAR Ccaron
ENCODING 268
SWIDTH 600 0
DWIDTH 17 0
BBX 13 24 2 0
BITMAP
38E0
1DC0
0F80
0600
0000
1F80
3FE0
7070
6030
C030
C018
C018
C000
C000
C000
C000
C000
C018
C018
C030
6030
7070
3FE0
0F80
ENDCHAR
STARTCHAR ccaron
ENCODING 269
SWIDTH 600 0
DWIDTH 17 0
BBX 12 20 2 0
BITMAP
38E0
1DC0
0F80
0700
0000
0000
0F80
3FE0
7070
6030
6030
C000
C000
C000
C000
6030
6030
7070
3FE0
0F80
ENDCHAR
STARTCHAR Dcaron
ENCODING 270
SWIDTH 600 0
DWIDTH 17 0
BBX 13 24 2 0
BITMAP
39C0
1F80
0F00
0000
0000
FF80
FFE0
C070
C030
C030
C018
C018
C018
C018
C018
C018
C018
C018
C018
C030
C030
C070
FFE0
FF80
ENDCHAR
STARTCHAR dcaron
ENCODING 271
SWIDTH 600 0
DWIDTH 17 0
BBX 16 20 1 0
BITMAP
0037
0037
0037
0032
0032
0030
1F30
3FB0
70F0
6070
E030
C030
C030
C030
C030
E030
6070
70F0
3FB0
1F30
ENDCHAR
STARTCHAR Dcroat
ENCODING 272
SWIDTH 600 0
DWIDTH 17 0
BBX 15 19 0 0
BITMAP
3FE0
3FF8
301C
300C
300C
3006
3006
3006
3006
FF86
FF86
3006
3006
3006
300E
300C
301C
3FF8
3FE0
ENDCHAR
STARTCHAR dcroat
ENCODING 273
SWIDTH 600 0
DWIDTH 17 0
BBX 14 20 2 0
BITMAP
0030
0030
03FC
03FC
0030
0030
1F30
3FB0
70F0
6070
E030
C030
C030
C030
C030
6030
6070
70F0
3FB0
1F30
ENDCHAR
STARTCHAR Emacron
ENCODING 274
SWIDTH 600 0
DWIDTH 17 0
BBX 12 24 3 0
BITMAP
7FC0
7FC0
0000
0000
0000
FFF0
FFF0
C000
C000
C000
C000
C000
C000
FFC0
FFC0
C000
C000
C000
C000
C000
C000
C000
FFF0
FFF0
ENDCHAR
STARTCHAR emacron
ENCODING 275
SWIDTH 600 0
DWIDTH 17 0
BBX 12 19 2 0
BITMAP
3FE0
3FE0
0000
0000
0000
0F80
3FE0
7070
6030
6030
C030
FFF0
FFF0
C000
6000
6030
7070
3FE0
0F80
ENDCHAR
STARTCHAR Ebreve
ENCODING 276
SWIDTH 600 0
DWIDTH 17 0
BBX 12 25 3 0
BITMAP
30C0
30C0
3F80
0F00
0000
0000
FFF0
FFF0
C000
C000
C000
C000
C000
C000
FFC0
FFC0
C000
C000
C000
C000
C000
C000
C000
FFF0
FFF0
ENDCHAR
STARTCHAR ebreve
ENCODING 277
SWIDTH 600 0
DWIDTH 17 0
BBX 12 20 2 0
BITMAP
3040
18C0
1FC0
0F80
0000
0000
0F80
3FE0
7070
6030
6030
C030
FFF0
FFF0
C000
6000
6030
7070
3FE0
0F80
ENDCHAR
STARTCHAR Edotaccent
ENCODING 278
SWIDTH 600 0
DWIDTH 17 0
BBX 12 24 3 0
BITMAP
0E00
0E00
0E00
0000
0000
FFF0
FFF0
C000
C000
C000
C000
C000
C000
FFC0
FFC0
C000
C000
C000
C000
C000
C000
C000
FFF0
FFF0
ENDCHAR
STARTCHAR edotaccent
ENCODING 279
SWIDTH 600 0
DWIDTH 17 0
BBX 12 20 2 0
BITMAP
0700
0700
0700
0000
0000
0000
0F80
3FE0
7070
6030
6030
C030
FFF0
FFF0
C000
6000
6030
7070
3FE0
0F80
ENDCHAR
STARTCHAR Eogonek
ENCODING 280
SWIDTH 600 0
DWIDTH 17 0
BBX 12 25 3 -6
BITMAP
FFF0
FFF0
C000
C000
C000
C000
C000
C000
FFC0
FFC0
C000
C000
C000
C000
C000
C000
C000
FFF0
FFF0
0060
00C0
0180
0180
01F0
00F0
ENDCHAR
STARTCHAR eogonek
ENCODING 281
SWIDTH 600 0
DWIDTH 17 0
BBX 12 19 2 -5
BITMAP
0F80
3FE0
7070
6030
6030
C030
FFF0
FFF0
C000
6000
6030
7070
3FE0
0F80
0300
0600
0400
0780
0780
ENDCHAR
STARTCHAR Ecaron
ENCODING 282
SWIDTH 600 0
DWIDTH 17 0
BBX 12 24 3 0
BITMAP
39C0
1F80
0F00
0000
0000
FFF0
FFF0
C000
C000
C000
C000
C000
C000
FFC0
FFC0
C000
C000
C000
C000
C000
C000
C000
FFF0
FFF0
ENDCHAR
STARTCHAR ecaron
ENCODING 283
SWIDTH 600 0
DWIDTH 17 0
BBX 12 20 2 0
BITMAP
38E0
1DC0
0F80
0700
0000
0000
0F80
3FE0
7070
6030
6030
C030
FFF0
FFF0
C000
6000
6030
7070
3FE0
0F80
ENDCHAR
STARTCHAR Gcircumflex
ENCODING 284
SWIDTH 600 0
DWIDTH 17 0
BBX 13 24 2 0
BITMAP
0700
0F80
38C0
0000
0000
1F80
3FE0
7070
6030
C038
C018
C018
C000
C000
C000
C1F8
C1F8
C018
C018
C038
6038
7058
3FD8
1F98
ENDCHAR
STARTCHAR gcircumflex
ENCODING 285
SWIDTH 600 0
DWIDTH 17 0
BBX 12 26 2 -6
BITMAP
0700
0F80
1D80
18C0
0000
0000
1F30
3FB0
70F0
6070
6030
C030
C030
C030
E030
6030
6070
70F0
3FB0
1F30
0030
0030
0030
0030
7FF0
7FE0
ENDCHAR
STARTCHAR Gbreve
ENCODING 286
SWIDTH 600 0
DWIDTH 17 0
BBX 13 24 2 0
BITMAP
3040
18C0
1FC0
0700
0000
1F80
3FE0
7070
6030
C038
C018
C018
C000
C000
C000
C1F8
C1F8
C018
C018
C038
6038
7058
3FD8
1F98
ENDCHAR
STARTCHAR gbreve
ENCODING 287
SWIDTH 600 0
DWIDTH 17 0
BBX 12 26 2 -6
BITMAP
3040
18C0
1FC0
0F80
0000
0000
1F30
3FB0
70F0
6070
6030
E030
C030
C030
C030
6030
6070
70F0
3FB0
1F30
0030
0030
0030
0030
7FF0
7FE0
ENDCHAR
STARTCHAR Gdotaccent
ENCODING 288
SWIDTH 600 0
DWIDTH 17 0
BBX 13 24 2 0
BITMAP
0700
0700
0700
0000
0000
1F80
3FE0
7070
6030
C038
C018
C018
C000
C000
C000
C1F8
C1F8
C018
C018
C038
6038
7058
3FD8
1F98
ENDCHAR
STARTCHAR gdotaccent
ENCODING 289
SWIDTH 600 0
DWIDTH 17 0
BBX 12 26 2 -6
BITMAP
0700
0700
0700
0000
0000
0000
1F30
3FB0
70F0
6070
6030
E030
C030
C030
C030
6030
6070
70F0
3FB0
1F30
0030
0030
0030
0030
7FF0
7FE0
ENDCHAR
STARTCHAR uni0122
ENCODING 290
SWIDTH 600 0
DWIDTH 17 0
BBX 13 26 2 -7
BITMAP
1F80
3FE0
7070
6030
C038
C018
C018
C000
C000
C000
C1F8
C1F8
C018
C018
C038
6038
7058
3FD8
1F98
0000
0000
0700
0700
0300
0200
0600
ENDCHAR
STARTCHAR uni0123
ENCODING 291
SWIDTH 600 0
DWIDTH 17 0
BBX 12 28 2 -6
BITMAP
0300
0200
0600
0700
0700
0700
0000
0000
1F30
3FB0
70F0
6070
6030
E030
C030
C030
C030
6030
6070
70F0
3FB0
1F30
0030
0030
0030
0030
7FF0
7FE0
ENDCHAR
STARTCHAR Hcircumflex
ENCODING 292
SWIDTH 600 0
DWIDTH 17 0
BBX 12 25 2 0
BITMAP
0600
0F80
1DC0
38E0
0000
0000
C030
C030
C030
C030
C030
C030
C030
C030
C030
FFF0
FFF0
C030
C030
C030
C030
C030
C030
C030
C030
ENDCHAR
STARTCHAR hcircumflex
ENCODING 293
SWIDTH 600 0
DWIDTH 17 0
BBX 15 26 -1 0
BITMAP
0C00
1E00
7700
E180
0000
0000
0C00
0C00
0C00
0C00
0C00
0C00
0CF8
0DFC
0F0E
0C06
0C06
0C06
0C06
0C06
0C06
0C06
0C06
0C06
0C06
0C06
ENDCHAR
STARTCHAR Hbar
ENCODING 294
SWIDTH 600 0
DWIDTH 17 0
BBX 15 19 1 0
BITMAP
6018
6018
6018
FFFE
FFFE
6018
6018
6018
6018
7FF8
7FF8
6018
6018
6018
6018
6018
6018
6018
6018
ENDCHAR
STARTCHAR hbar
ENCODING 295
SWIDTH 600 0
DWIDTH 17 0
BBX 13 20 1 0
BITMAP
3000
3000
FF00
FF00
3000
3000
33E0
37F0
3C38
3018
3018
3018
3018
3018
3018
3018
3018
3018
3018
3018
ENDCHAR
STARTCHAR Itilde
ENCODING 296
SWIDTH 600 0
DWIDTH 17 0
BBX 12 25 2 0
BITMAP
1C00
3E60
27E0
61C0
0000
0000
FFF0
FFF0
0600
0600
0600
0600
0600
0600
0600
0600
0600
0600
0600
0600
0600
0600
0600
FFF0
FFF0
ENDCHAR
STARTCHAR itilde
ENCODING 297
SWIDTH 600 0
DWIDTH 17 0
BBX 13 20 3 0
BITMAP
3C60
3E60
67E0
61C0
0000
0000
FE00
FE00
0600
0600
0600
0600
0600
0600
0600
0600
0600
0600
03F8
01F8
ENDCHAR
STARTCHAR Imacron
ENCODING 298
SWIDTH 600 0
DWIDTH 17 0
BBX 12 24 2 0
BITMAP
1FC0
1FC0
0000
0000
0000
FFF0
FFF0
0600
0600
0600
0600
0600
0600
0600
0600
0600
0600
0600
0600
0600
0600
0600
FFF0
FFF0
ENDCHAR
STARTCHAR imacron
ENCODING 299
SWIDTH 600 0
DWIDTH 17 0
BBX 13 19 3 0
BITMAP
3FE0
3FE0
0000
0000
0000
FE00
FE00
0600
0600
0600
0600
0600
0600
0600
0600
0600
0600
03F8
01F8
ENDCHAR
STARTCHAR Ibreve
ENCODING 300
SWIDTH 600 0
DWIDTH 17 0
BBX 12 25 2 0
BITMAP
3040
30C0
1FC0
0F80
0000
0000
FFF0
FFF0
0600
0600
0600
0600
0600
0600
0600
0600
0600
0600
0600
0600
0600
0600
0600
FFF0
FFF0
ENDCHAR
STARTCHAR ibreve
ENCODING 301
SWIDTH 600 0
DWIDTH 17 0
BBX 13 20 3 0
BITMAP
30C0
30C0
1F80
0F00
0000
0000
FE00
FE00
0600
0600
0600
0600
0600
0600
0600
0600
0600
0600
03F8
01F8
ENDCHAR
STARTCHAR Iogonek
ENCODING 302
SWIDTH 600 0
DWIDTH 17 0
BBX 12 25 2 -6
BITMAP
FFF0
FFF0
0600
0600
0600
0600
0600
0600
0600
0600
0600
0600
0600
0600
0600
0600
0600
FFF0
FFF0
0030
00C0
00C0
0080
00F0
00F0
ENDCHAR
STARTCHAR iogonek
ENCODING 303
SWIDTH 600 0
DWIDTH 17 0
BBX 13 26 3 -6
BITMAP
0F00
0F00
0F00
0000
0000
0000
FE00
FE00
0600
0600
0600
0600
0600
0600
0600
0600
0600
0600
03F8
01F8
0030
0060
00C0
00C0
00F8
0078
ENDCHAR
STARTCHAR Idotaccent
ENCODING 304
SWIDTH 600 0
DWIDTH 17 0
BBX 12 24 2 0
BITMAP
0700
0700
0700
0000
0000
FFF0
FFF0
0600
0600
0600
0600
0600
0600
0600
0600
0600
0600
0600
0600
0600
0600
0600
FFF0
FFF0
ENDCHAR
STARTCHAR dotlessi
ENCODING 305
SWIDTH 600 0
DWIDTH 17 0
BBX 13 14 3 0
BITMAP
FE00
FE00
0600
0600
0600
0600
0600
0600
0600
0600
0600
0600
03F8
01F8
ENDCHAR
STARTCHAR IJ
ENCODING 306
SWIDTH 600 0
DWIDTH 17 0
BBX 13 19 2 0
BITMAP
C3F8
C3F8
C018
C018
C018
C018
C018
C018
C018
C018
C018
CC18
CC18
CC18
CC18
CC18
C630
C7F0
C3E0
ENDCHAR
STARTCHAR ij
ENCODING 307
SWIDTH 600 0
DWIDTH 17 0
BBX 11 26 3 -6
BITMAP
E0E0
E0E0
E0E0
0000
0000
0000
E0C0
E0C0
E0C0
E0C0
E0C0
E0C0
E0C0
E0C0
E0C0
E0C0
E0C0
E0C0
E0C0
E0C0
00C0
00C0
00C0
00C0
0FC0
0F80
ENDCHAR
STARTCHAR Jcircumflex
ENCODING 308
SWIDTH 600 0
DWIDTH 17 0
BBX 12 25 2 0
BITMAP
0180
03C0
06E0
1C30
0000
0000
1FF0
1FF0
0030
0030
0030
0030
0030
0030
0030
0030
C030
C030
C030
C030
E030
6030
7070
3FE0
0F80
ENDCHAR
STARTCHAR jcircumflex
ENCODING 309
SWIDTH 600 0
DWIDTH 17 0
BBX 13 26 2 -6
BITMAP
01E0
01F0
0330
0618
0000
0000
FFC0
FFC0
00C0
00C0
00C0
00C0
00C0
00C0
00C0
00C0
00C0
00C0
00C0
00C0
00C0
00C0
00C0
00C0
FFC0
FF80
ENDCHAR
STARTCHAR uni0136
ENCODING 310
SWIDTH 600 0
DWIDTH 17 0
BBX 12 26 3 -7
BITMAP
C070
C060
C0C0
C1C0
C380
C300
C600
CE00
CE00
DE00
F300
F300
E180
C1C0
C0C0
C0E0
C060
C030
C030
0000
0000
0E00
0E00
0600
0400
0C00
ENDCHAR
STARTCHAR uni0137
ENCODING 311
SWIDTH 600 0
DWIDTH 17 0
BBX 12 27 3 -7
BITMAP
C000
C000
C000
C000
C000
C000
C060
C0C0
C180
C300
C600
CE00
DE00
F300
E380
C180
C0C0
C0E0
C060
C030
0000
0000
0E00
0E00
0600
0400
0C00
ENDCHAR
STARTCHAR kgreenlandic
ENCODING 312
SWIDTH 600 0
DWIDTH 17 0
BBX 12 14 3 0
BITMAP
C060
C0C0
C180
C700
CE00
DC00
FE00
F700
E300
C180
C1C0
C0C0
C060
C070
ENDCHAR
STARTCHAR Lacute
ENCODING 313
SWIDTH 600 0
DWIDTH 17 0
BBX 12 24 3 0
BITMAP
3800
7000
C000
0000
0000
C000
C000
C000
C000
C000
C000
C000
C000
C000
C000
C000
C000
C000
C000
C000
C000
C000
FFF0
FFF0
ENDCHAR
STARTCHAR lacute
ENCODING 314
SWIDTH 600 0
DWIDTH 17 0
BBX 14 25 1 0
BITMAP
01C0
0380
0700
0000
0000
FF00
FF00
0300
0300
0300
0300
0300
0300
0300
0300
0300
0300
0300
0300
0300
0300
0300
0300
03FC
01FC
ENDCHAR
STARTCHAR uni013B
ENCODING 315
SWIDTH 600 0
DWIDTH 17 0
BBX 12 26 3 -7
BITMAP
C000
C000
C000
C000
C000
C000
C000
C000
C000
C000
C000
C000
C000
C000
C000
C000
C000
FFF0
FFF0
0000
0000
0600
0600
0200
0600
0400
ENDCHAR
STARTCHAR uni013C
ENCODING 316
SWIDTH 600 0
DWIDTH 17 0
BBX 14 28 1 -8
BITMAP
FF00
FF00
0300
0300
0300
0300
0300
0300
0300
0300
0300
0300
0300
0300
0300
0300
0300
0300
03FC
01FC
0000
0000
0700
0700
0700
0300
0200
0600
ENDCHAR
STARTCHAR Lcaron
ENCODING 317
SWIDTH 600 0
DWIDTH 17 0
BBX 12 19 3 0
BITMAP
C0E0
C0E0
C0E0
C060
C040
C0C0
C000
C000
C000
C000
C000
C000
C000
C000
C000
C000
C000
FFF0
FFF0
ENDCHAR
STARTCHAR lcaron
ENCODING 318
SWIDTH 600 0
DWIDTH 17 0
BBX 14 20 1 0
BITMAP
FF1C
FF1C
031C
030C
0308
0318
0300
0300
0300
0300
0300
0300
0300
0300
0300
0300
0300
0300
03FC
01FC
ENDCHAR
STARTCHAR Ldot
ENCODING 319
SWIDTH 600 0
DWIDTH 17 0
BBX 12 19 3 0
BITMAP
C000
C000
C000
C000
C000
C000
C000
C000
C0E0
C0E0
C0E0
C000
C000
C000
C000
C000
C000
FFF0
FFF0
ENDCHAR
STARTCHAR ldot
ENCODING 320
SWIDTH 600 0
DWIDTH 17 0
BBX 16 20 1 0
BITMAP
FF00
FF00
0300
0300
0300
0300
0300
0300
0300
0307
0307
0307
0300
0300
0300
0300
0300
0300
03FC
01FC
ENDCHAR
STARTCHAR Lslash
ENCODING 321
SWIDTH 600 0
DWIDTH 17 0
BBX 14 19 1 0
BITMAP
3000
3000
3000
3000
3000
3000
3000
3200
3E00
F800
F000
3000
3000
3000
3000
3000
3000
3FFC
3FFC
ENDCHAR
STARTCHAR lslash
ENCODING 322
SWIDTH 600 0
DWIDTH 17 0
BBX 14 20 1 0
BITMAP
FF00
FF00
0300
0300
0300
0300
0300
0300
0360
07E0
3F80
3B00
0300
0300
0300
0300
0300
0300
03FC
01FC
ENDCHAR
STARTCHAR Nacute
ENCODING 323
SWIDTH 600 0
DWIDTH 17 0
BBX 11 24 3 0
BITMAP
0380
0700
0C00
0000
0000
E060
E060
F060
F060
F060
D860
D860
CC60
CC60
CC60
C660
C660
C360
C360
C360
C1E0
C1E0
C0E0
C0E0
ENDCHAR
STARTCHAR nacute
ENCODING 324
SWIDTH 600 0
DWIDTH 17 0
BBX 11 20 3 0
BITMAP
0380
0700
0600
0C00
0000
0000
CF80
DFC0
F0E0
C060
C060
C060
C060
C060
C060
C060
C060
C060
C060
C060
ENDCHAR
STARTCHAR uni0145
ENCODING 325
SWIDTH 600 0
DWIDTH 17 0
BBX 11 26 3 -7
BITMAP
E060
E060
F060
F060
F060
D860
D860
CC60
CC60
CC60
C660
C660
C360
C360
C360
C1E0
C1E0
C0E0
C0E0
0000
0000
0E00
0E00
0600
0400
0C00
ENDCHAR
STARTCHAR uni0146
ENCODING 326
SWIDTH 600 0
DWIDTH 17 0
BBX 11 21 3 -7
BITMAP
CF80
DFC0
F0E0
C060
C060
C060
C060
C060
C060
C060
C060
C060
C060
C060
0000
0000
0E00
0E00
0600
0400
0400
ENDCHAR
STARTCHAR Ncaron
ENCODING 327
SWIDTH 600 0
DWIDTH 17 0
BBX 11 24 3 0
BITMAP
3180
1F00
0E00
0000
0000
E060
E060
F060
F060
F060
D860
D860
CC60
CC60
CC60
C660
C660
C360
C360
C360
C1E0
C1E0
C0E0
C0E0
ENDCHAR
STARTCHAR ncaron
ENCODING 328
SWIDTH 600 0
DWIDTH 17 0
BBX 11 20 3 0
BITMAP
71C0
3B80
1F00
0E00
0000
0000
CF80
DFC0
F0E0
C060
C060
C060
C060
C060
C060
C060
C060
C060
C060
C060
ENDCHAR
STARTCHAR napostrophe
ENCODING 329
SWIDTH 600 0
DWIDTH 17 0
BBX 12 21 2 0
BITMAP
E000
E000
E000
4000
C000
0000
0000
67C0
6FE0
7870
6030
6030
6030
6030
6030
6030
6030
6030
6030
6030
6030
ENDCHAR
STARTCHAR Eng
ENCODING 330
SWIDTH 600 0
DWIDTH 17 0
BBX 11 25 3 -6
BITMAP
E060
E060
F060
F060
F060
D860
D860
CC60
CC60
CC60
C660
C660
C360
C360
C360
C1E0
C1E0
C0E0
C0E0
0060
0060
0060
0060
0FE0
0FC0
ENDCHAR
STARTCHAR eng
ENCODING 331
SWIDTH 600 0
DWIDTH 17 0
BBX 11 20 3 -6
BITMAP
CF80
DFC0
F0E0
C060
C060
C060
C060
C060
C060
C060
C060
C060
C060
C060
0060
0060
0060
0060
03E0
03C0
ENDCHAR
STARTCHAR Omacron
ENCODING 332
SWIDTH 600 0
DWIDTH 17 0
BBX 13 23 2 0
BITMAP
3FE0
3FE0
0000
0000
1F80
3FE0
7070
6030
C030
C018
C018
C018
C018
C018
C018
C018
C018
C018
C030
6030
7070
3FE0
0F80
ENDCHAR
STARTCHAR omacron
ENCODING 333
SWIDTH 600 0
DWIDTH 17 0
BBX 12 19 2 0
BITMAP
3FE0
3FE0
0000
0000
0000
0F80
3FE0
7060
6030
6030
C030
C030
C030
C030
6030
6030
7070
3FE0
0F80
ENDCHAR
STARTCHAR Obreve
ENCODING 334
SWIDTH 600 0
DWIDTH 17 0
BBX 13 24 2 0
BITMAP
3040
18C0
1FC0
0700
0000
1F80
3FE0
7070
6030
C030
C018
C018
C018
C018
C018
C018
C018
C018
C018
C030
6030
7070
3FE0
0F80
ENDCHAR
STARTCHAR obreve
ENCODING 335
SWIDTH 600 0
DWIDTH 17 0
BBX 12 20 2 0
BITMAP
3040
18C0
1FC0
0F80
0000
0000
0F80
3FE0
7060
6030
6030
C030
C030
C030
C030
6030
6030
7070
3FE0
0F80
ENDCHAR
STARTCHAR Ohungarumlaut
ENCODING 336
SWIDTH 600 0
DWIDTH 17 0
BBX 13 24 2 0
BITMAP
0770
0EE0
1DC0
0000
0000
1F80
3FE0
7070
6030
C030
C018
C018
C018
C018
C018
C018
C018
C018
C018
C030
6030
7070
3FE0
0F80
ENDCHAR
STARTCHAR ohungarumlaut
ENCODING 337
SWIDTH 600 0
DWIDTH 17 0
BBX 13 20 2 0
BITMAP
0738
0670
0EE0
1CC0
0000
0000
0F80
3FE0
7060
6030
6030
C030
C030
C030
C030
6030
6030
7070
3FE0
0F80
ENDCHAR
STARTCHAR OE
ENCODING 338
SWIDTH 600 0
DWIDTH 17 0
BBX 15 19 1 0
BITMAP
3CFE
7EFE
E1C0
C1C0
C0C0
C0C0
C0C0
C0C0
C0FC
C0FC
C0C0
C0C0
C0C0
C0C0
C1C0
C1C0
61C0
7EFE
3CFE
ENDCHAR
STARTCHAR oe
ENCODING 339
SWIDTH 600 0
DWIDTH 17 0
BBX 15 14 1 0
BITMAP
3C78
7EFC
E68E
C386
C386
C306
C3FE
C3FE
C300
C300
C386
C68C
7EFC
3C78
ENDCHAR
STARTCHAR Racute
ENCODING 340
SWIDTH 600 0
DWIDTH 17 0
BBX 12 24 3 0
BITMAP
0700
0E00
1C00
0000
0000
FF80
FFC0
C060
C070
C030
C030
C030
C030
C070
C0E0
FFC0
FF80
C600
C300
C380
C180
C0C0
C0E0
C060
ENDCHAR
STARTCHAR racute
ENCODING 341
SWIDTH 600 0
DWIDTH 17 0
BBX 13 20 2 0
BITMAP
0700
0E00
0C00
1800
0000
0000
FCF8
FDF8
0E00
0C00
0C00
0C00
0C00
0C00
0C00
0C00
0C00
0C00
FFE0
FFE0
ENDCHAR
STARTCHAR uni0156
ENCODING 342
SWIDTH 600 0
DWIDTH 17 0
BBX 12 26 3 -7
BITMAP
FF80
FFC0
C060
C070
C030
C030
C030
C030
C070
C0E0
FFC0
FF80
C600
C300
C380
C180
C0C0
C0E0
C060
0000
0000
0E00
0E00
0400
0C00
0C00
ENDCHAR
STARTCHAR uni0157
ENCODING 343
SWIDTH 600 0
DWIDTH 17 0
BBX 13 22 2 -8
BITMAP
FCF8
FDF8
0E00
0C00
0C00
0C00
0C00
0C00
0C00
0C00
0C00
0C00
FFE0
FFE0
0000
0000
1C00
1C00
1C00
0C00
0C00
0800
ENDCHAR
STARTCHAR Rcaron
ENCODING 344
SWIDTH 600 0
DWIDTH 17 0
BBX 12 24 3 0
BITMAP
7380
3F00
1E00
0000
0000
FF80
FFC0
C060
C070
C030
C030
C030
C030
C070
C0E0
FFC0
FF80
C600
C300
C380
C180
C0C0
C0E0
C060
ENDCHAR
STARTCHAR rcaron
ENCODING 345
SWIDTH 600 0
DWIDTH 17 0
BBX 13 20 2 0
BITMAP
7380
3700
1E00
1C00
0000
0000
FCF8
FDF8
0E00
0C00
0C00
0C00
0C00
0C00
0C00
0C00
0C00
0C00
FFE0
FFE0
ENDCHAR
STARTCHAR Sacute
ENCODING 346
SWIDTH 600 0
DWIDTH 17 0
BBX 13 24 2 0
BITMAP
01C0
0300
0600
0000
0000
1F80
3FE0
7070
E030
C030
C030
6000
7000
3E00
0FC0
01E0
0070
0038
C018
C018
C038
6070
3FE0
1FC0
ENDCHAR
STARTCHAR sacute
ENCODING 347
SWIDTH 600 0
DWIDTH 17 0
BBX 11 20 3 0
BITMAP
0380
0700
0600
0C00
0000
0000
3F00
7FC0
C0C0
C060
C060
E000
7F00
07C0
00E0
C060
C060
E060
7FC0
3F80
ENDCHAR
STARTCHAR Scircumflex
ENCODING 348
SWIDTH 600 0
DWIDTH 17 0
BBX 13 24 2 0
BITMAP
0F00
1F80
39C0
0000
0000
1F80
3FE0
7070
E030
C030
C030
6000
7000
3E00
0FC0
01E0
0070
0038
C018
C018
C038
6070
3FE0
1FC0
ENDCHAR
STARTCHAR scircumflex
ENCODING 349
SWIDTH 600 0
DWIDTH 17 0
BBX 11 20 3 0
BITMAP
0E00
1F00
3B00
3180
0000
0000
3F00
7FC0
C0C0
C060
C060
E000
7F00
07C0
00E0
C060
C060
E060
7FC0
3F80
ENDCHAR
STARTCHAR Scedilla
ENCODING 350
SWIDTH 600 0
DWIDTH 17 0
BBX 13 25 2 -6
BITMAP
1F80
3FE0
7070
E030
C030
C030
6000
7000
3E00
0FC0
01E0
0070
0038
C018
C018
C038
6070
3FE0
1FC0
0600
0580
0780
0180
0F80
0F00
ENDCHAR
STARTCHAR scedilla
ENCODING 351
SWIDTH 600 0
DWIDTH 17 0
BBX 11 20 3 -6
BITMAP
3F00
7FC0
C0C0
C060
C060
E000
7F00
0FC0
00E0
C060
C060
C060
7FC0
3F80
0C00
0A00
0F00
0300
1F00
1E00
ENDCHAR
STARTCHAR Scaron
ENCODING 352
SWIDTH 600 0
DWIDTH 17 0
BBX 13 24 2 0
BITMAP
30C0
1D80
0F00
0600
0000
1F80
3FE0
7070
E030
C030
C030
6000
7000
3E00
0FC0
01E0
0070
0038
C018
C018
C038
6070
3FE0
1FC0
ENDCHAR
STARTCHAR scaron
ENCODING 353
SWIDTH 600 0
DWIDTH 17 0
BBX 11 20 3 0
BITMAP
7180
3B80
1F00
0E00
0000
0000
3F00
7FC0
C0C0
C060
C060
E000
7F00
07C0
00E0
C060
C060
E060
7FC0
3F80
ENDCHAR
STARTCHAR uni0162
ENCODING 354
SWIDTH 600 0
DWIDTH 17 0
BBX 14 25 1 -6
BITMAP
FFFC
FFFC
0300
0300
0300
0300
0300
0300
0300
0300
0300
0300
0300
0300
0300
0300
0300
0300
0300
0300
0200
03C0
00C0
07C0
0780
ENDCHAR
STARTCHAR uni0163
ENCODING 355
SWIDTH 600 0
DWIDTH 17 0
BBX 13 23 1 -6
BITMAP
0600
0600
0600
FFF8
FFF8
0600
0600
0600
0600
0600
0600
0600
0600
0600
0600
07F8
03F8
0300
0200
03C0
00C0
07C0
0780
ENDCHAR
STARTCHAR Tcaron
ENCODING 356
SWIDTH 600 0
DWIDTH 17 0
BBX 14 24 1 0
BITMAP
1C60
07C0
0380
0000
0000
FFFC
FFFC
0300
0300
0300
0300
0300
0300
0300
0300
0300
0300
0300
0300
0300
0300
0300
0300
0300
ENDCHAR
STARTCHAR tcaron
ENCODING 357
SWIDTH 600 0
DWIDTH 17 0
BBX 13 20 1 0
BITMAP
0070
0070
0030
0220
0660
0600
FFF8
FFF8
0600
0600
0600
0600
0600
0600
0600
0600
0600
0600
07F8
03F8
ENDCHAR
STARTCHAR Tbar
ENCODING 358
SWIDTH 600 0
DWIDTH 17 0
BBX 14 19 1 0
BITMAP
FFFC
FFFC
0300
0300
0300
0300
0300
0300
0300
1FF0
1FF0
0300
0300
0300
0300
0300
0300
0300
0300
ENDCHAR
STARTCHAR tbar
ENCODING 359
SWIDTH 600 0
DWIDTH 17 0
BBX 13 17 1 0
BITMAP
0600
0600
0600
FFF8
FFF8
0600
0600
0600
3FC0
3FC0
0600
0600
0600
0600
0600
07F8
03F8
ENDCHAR
STARTCHAR Utilde
ENCODING 360
SWIDTH 600 0
DWIDTH 17 0
BBX 12 25 2 0
BITMAP
1C00
3E60
33E0
21C0
0000
0000
C030
C030
C030
C030
C030
C030
C030
C030
C030
C030
C030
C030
C030
C030
E030
6030
7070
3FE0
0F80
ENDCHAR
STARTCHAR utilde
ENCODING 361
SWIDTH 600 0
DWIDTH 17 0
BBX 11 20 3 0
BITMAP
38C0
7CC0
C7C0
C380
0000
0000
C060
C060
C060
C060
C060
C060
C060
C060
C060
C060
C0E0
E1E0
7F60
3E60
ENDCHAR
STARTCHAR Umacron
ENCODING 362
SWIDTH 600 0
DWIDTH 17 0
BBX 12 24 2 0
BITMAP
3FE0
3FE0
0000
0000
0000
C030
C030
C030
C030
C030
C030
C030
C030
C030
C030
C030
C030
C030
C030
E030
6030
7070
3FE0
0F80
ENDCHAR
STARTCHAR umacron
ENCODING 363
SWIDTH 600 0
DWIDTH 17 0
BBX 11 19 3 0
BITMAP
7FC0
7FC0
0000
0000
0000
C060
C060
C060
C060
C060
C060
C060
C060
C060
C060
C0E0
E1E0
7F60
3E60
ENDCHAR
STARTCHAR Ubreve
ENCODING 364
SWIDTH 600 0
DWIDTH 17 0
BBX 12 25 2 0
BITMAP
3040
30C0
1FC0
0F80
0000
0000
C030
C030
C030
C030
C030
C030
C030
C030
C030
C030
C030
C030
C030
C030
E030
6030
7070
3FE0
0F80
ENDCHAR
STARTCHAR ubreve
ENCODING 365
SWIDTH 600 0
DWIDTH 17 0
BBX 11 20 3 0
BITMAP
6080
6180
3F80
1E00
0000
0000
C060
C060
C060
C060
C060
C060
C060
C060
C060
C060
C0E0
E1E0
7F60
3E60
ENDCHAR
STARTCHAR Uring
ENCODING 366
SWIDTH 600 0
DWIDTH 17 0
BBX 12 27 2 0
BITMAP
0700
0F80
18C0
18C0
18C0
0F80
0700
0000
C030
C030
C030
C030
C030
C030
C030
C030
C030
C030
C030
C030
C030
C030
E030
6030
7070
3FE0
0F80
ENDCHAR
STARTCHAR uring
ENCODING 367
SWIDTH 600 0
DWIDTH 17 0
BBX 11 23 3 0
BITMAP
0C00
1F00
3180
3180
3180
1F00
0E00
0000
0000
C060
C060
C060
C060
C060
C060
C060
C060
C060
C060
C0E0
E1E0
7F60
3E60
ENDCHAR
STARTCHAR Uhungarumlaut
ENCODING 368
SWIDTH 600 0
DWIDTH 17 0
BBX 12 24 2 0
BITMAP
0770
0EE0
1DC0
0000
0000
C030
C030
C030
C030
C030
C030
C030
C030
C030
C030
C030
C030
C030
C030
E030
6030
7070
3FE0
0F80
ENDCHAR
STARTCHAR uhungarumlaut
ENCODING 369
SWIDTH 600 0
DWIDTH 17 0
BBX 11 20 3 0
BITMAP
0EE0
1CC0
39C0
3380
0000
0000
C060
C060
C060
C060
C060
C060
C060
C060
C060
C060
C0E0
E1E0
7F60
3E60
ENDCHAR
STARTCHAR Uogonek
ENCODING 370
SWIDTH 600 0
DWIDTH 17 0
BBX 12 24 2 -5
BITMAP
C030
C030
C030
C030
C030
C030
C030
C030
C030
C030
C030
C030
C030
C030
E030
6030
7070
3FE0
0F80
0300
0600
0600
07C0
03C0
ENDCHAR
STARTCHAR uogonek
ENCODING 371
SWIDTH 600 0
DWIDTH 17 0
BBX 11 20 3 -6
BITMAP
C060
C060
C060
C060
C060
C060
C060
C060
C060
C060
C0E0
E1E0
7F60
3E60
00C0
0180
0100
0300
03E0
01E0
ENDCHAR
STARTCHAR Wcircumflex
ENCODING 372
SWIDTH 600 0
DWIDTH 17 0
BBX 14 25 1 0
BITMAP
0380
07C0
0EE0
1C70
0000
0000
C384
C384
C284
C68C
468C
46CC
66CC
64CC
64CC
644C
6C4C
6C4C
6C6C
6C6C
6868
6868
6828
3838
3838
ENDCHAR
STARTCHAR wcircumflex
ENCODING 373
SWIDTH 600 0
DWIDTH 17 0
BBX 15 20 1 0
BITMAP
0380
07C0
0EE0
1C60
0000
0000
C386
C386
C384
C28C
468C
66CC
66CC
64CC
6448
6C48
2C78
2C78
3878
3838
ENDCHAR
STARTCHAR Ycircumflex
ENCODING 374
SWIDTH 600 0
DWIDTH 17 0
BBX 14 25 1 0
BITMAP
0300
07C0
0EE0
1C70
0000
0000
E00C
600C
3018
3038
1830
1870
0C60
0CC0
06C0
0780
0380
0300
0300
0300
0300
0300
0300
0300
0300
ENDCHAR
STARTCHAR ycircumflex
ENCODING 375
SWIDTH 600 0
DWIDTH 17 0
BBX 13 26 2 -6
BITMAP
0700
0F80
1DC0
38C0
0000
0000
C018
C030
6030
6030
7060
3060
3060
38C0
18C0
19C0
0D80
0D80
0F00
0700
0300
0600
0600
0600
FC00
F800
ENDCHAR
STARTCHAR Ydieresis
ENCODING 376
SWIDTH 600 0
DWIDTH 17 0
BBX 14 24 1 0
BITMAP
1C70
1C70
1C70
0000
0000
E00C
600C
3018
3038
1830
1870
0C60
0CC0
06C0
0780
0380
0300
0300
0300
0300
0300
0300
0300
0300
ENDCHAR
STARTCHAR Zacute
ENCODING 377
SWIDTH 600 0
DWIDTH 17 0
BBX 13 24 2 0
BITMAP
01C0
0380
0700
0000
0000
7FF8
7FF8
0030
0070
0060
00C0
0180
0180
0300
0600
0600
0C00
1800
1800
3000
6000
E000
FFF8
FFF8
ENDCHAR
STARTCHAR zacute
ENCODING 378
SWIDTH 600 0
DWIDTH 17 0
BBX 11 20 3 0
BITMAP
0380
0700
0E00
0C00
0000
0000
FFE0
FFE0
00E0
01C0
0380
0700
0600
0C00
1800
3000
6000
C000
FFE0
FFE0
ENDCHAR
STARTCHAR Zdotaccent
ENCODING 379
SWIDTH 600 0
DWIDTH 17 0
BBX 13 24 2 0
BITMAP
0700
0700
0700
0000
0000
7FF8
7FF8
0030
0070
0060
00C0
0180
0180
0300
0600
0600
0C00
1800
1800
3000
6000
E000
FFF8
FFF8
ENDCHAR
STARTCHAR zdotaccent
ENCODING 380
SWIDTH 600 0
DWIDTH 17 0
BBX 11 20 3 0
BITMAP
0E00
0E00
0E00
0000
0000
0000
FFE0
FFE0
00E0
01C0
0380
0700
0600
0C00
1800
3000
6000
C000
FFE0
FFE0
ENDCHAR
STARTCHAR Zcaron
ENCODING 381
SWIDTH 600 0
DWIDTH 17 0
BBX 13 24 2 0
BITMAP
18E0
0F80
0700
0000
0000
7FF8
7FF8
0030
0070
0060
00C0
0180
0180
0300
0600
0600
0C00
1800
1800
3000
6000
E000
FFF8
FFF8
ENDCHAR
STARTCHAR zcaron
ENCODING 382
SWIDTH 600 0
DWIDTH 17 0
BBX 11 20 3 0
BITMAP
3180
3B00
1F00
0E00
0000
0000
FFE0
FFE0
00E0
01C0
0380
0700
0600
0C00
1800
3000
6000
C000
FFE0
FFE0
ENDCHAR
STARTCHAR uni018F
ENCODING 399
SWIDTH 600 0
DWIDTH 17 0
BBX 13 19 2 0
BITMAP
1F80
3FE0
7070
6030
C030
C018
0018
0018
0018
FFF8
FFF8
C018
C018
C018
C030
6030
7070
3FE0
0F80
ENDCHAR
STARTCHAR uni019D
ENCODING 413
SWIDTH 600 0
DWIDTH 17 0
BBX 15 25 -1 -6
BITMAP
0E06
0E06
0F06
0F06
0F06
0D86
0D86
0CC6
0CC6
0CC6
0C66
0C66
0C36
0C36
0C36
0C1E
0C1E
0C0E
0C0E
0C00
0C00
0C00
1800
F800
F000
ENDCHAR
STARTCHAR Gcaron
ENCODING 486
SWIDTH 600 0
DWIDTH 17 0
BBX 13 24 2 0
BITMAP
38E0
1DC0
0F80
0600
0000
1F80
3FE0
7070
6030
C038
C018
C018
C000
C000
C000
C1F8
C1F8
C018
C018
C038
6038
7058
3FD8
1F98
ENDCHAR
STARTCHAR gcaron
ENCODING 487
SWIDTH 600 0
DWIDTH 17 0
BBX 12 26 2 -6
BITMAP
38E0
1DC0
0F80
0700
0000
0000
1F30
3FB0
70F0
6070
6030
C030
C030
C030
E030
6030
6070
70F0
3FB0
1F30
0030
0030
0030
0030
7FF0
7FE0
ENDCHAR
STARTCHAR uni01EA
ENCODING 490
SWIDTH 600 0
DWIDTH 17 0
BBX 13 25 2 -6
BITMAP
1F80
3FE0
7070
6030
C030
C018
C018
C018
C018
C018
C018
C018
C018
C018
C038
6030
7070
3FE0
0F80
0300
0600
0600
0E00
07C0
07C0
ENDCHAR
STARTCHAR uni01EB
ENCODING 491
SWIDTH 600 0
DWIDTH 17 0
BBX 12 20 2 -6
BITMAP
0F80
3FE0
7060
6030
6030
C030
C030
C030
C030
6030
6030
7070
3FE0
0F80
0300
0600
0C00
0C00
07C0
07C0
ENDCHAR
STARTCHAR Aringacute
ENCODING 506
SWIDTH 600 0
DWIDTH 17 0
BBX 14 32 1 0
BITMAP
00E0
01C0
0380
0700
0000
0380
07C0
0C60
0C60
0C60
07C0
0380
0000
0380
0780
06C0
06C0
06C0
0C60
0C60
0C60
1860
1830
1830
3FF0
3FF8
3018
3018
601C
600C
600C
E00C
ENDCHAR
STARTCHAR aringacute
ENCODING 507
SWIDTH 600 0
DWIDTH 17 0
BBX 14 28 2 0
BITMAP
0380
0300
0700
0E00
0000
0600
1F80
1980
1080
1880
1F80
0F00
0000
0000
1F80
3FC0
70E0
6060
E060
0060
07E0
7FE0
E060
C060
C0E0
C1E0
7F7C
3C7C
ENDCHAR
STARTCHAR AEacute
ENCODING 508
SWIDTH 600 0
DWIDTH 17 0
BBX 15 24 1 0
BITMAP
0070
00E0
0180
0000
0000
0FFE
0FFE
0D80
0980
1980
1980
1980
1980
31FC
31FC
3180
3F80
7F80
6180
6180
6180
6180
C1FE
C1FE
ENDCHAR
STARTCHAR aeacute
ENCODING 509
SWIDTH 600 0
DWIDTH 17 0
BBX 15 20 1 0
BITMAP
00E0
01C0
0180
0300
0000
0000
3C78
7EFC
628E
C386
C386
0306
07FE
7FFE
E300
C300
C386
C68C
FCFC
7878
ENDCHAR
STARTCHAR Oslashacute
ENCODING 510
SWIDTH 600 0
DWIDTH 17 0
BBX 13 24 2 0
BITMAP
01C0
0380
0600
0000
0000
1F98
3FF0
7070
6070
C078
C0D8
C198
C118
C318
C218
C618
CC18
C818
D818
F030
E030
7070
7FE0
CF80
ENDCHAR
STARTCHAR oslashacute
ENCODING 511
SWIDTH 600 0
DWIDTH 17 0
BBX 12 20 2 0
BITMAP
01C0
0380
0300
0600
0000
0000
0FB0
3FE0
7070
60F0
61B0
C130
C330
C630
C430
6830
7830
7060
3FE0
6F80
ENDCHAR
STARTCHAR uni0218
ENCODING 536
SWIDTH 600 0
DWIDTH 17 0
BBX 13 26 2 -7
BITMAP
1F80
3FE0
7070
E030
C030
C030
6000
7000
3E00
0FC0
01E0
0070
0038
C018
C018
C038
6070
3FE0
1FC0
0000
0000
0700
0700
0300
0200
0600
ENDCHAR
STARTCHAR uni0219
ENCODING 537
SWIDTH 600 0
DWIDTH 17 0
BBX 11 21 3 -7
BITMAP
3F00
7FC0
C0C0
C060
C060
E000
7F00
07C0
00E0
C060
C060
E060
7FC0
3F80
0000
0000
0E00
0E00
0600
0400
0C00
ENDCHAR
STARTCHAR uni021A
ENCODING 538
SWIDTH 600 0
DWIDTH 17 0
BBX 14 26 1 -7
BITMAP
FFFC
FFFC
0300
0300
0300
0300
0300
0300
0300
0300
0300
0300
0300
0300
0300
0300
0300
0300
0300
0000
0000
0380
0380
0180
0100
0300
ENDCHAR
STARTCHAR uni021B
ENCODING 539
SWIDTH 600 0
DWIDTH 17 0
BBX 13 24 1 -7
BITMAP
0600
0600
0600
FFF8
FFF8
0600
0600
0600
0600
0600
0600
0600
0600
0600
0600
07F8
03F8
0000
0000
0380
0380
0180
0100
0300
ENDCHAR
STARTCHAR uni0232
ENCODING 562
SWIDTH 600 0
DWIDTH 17 0
BBX 14 24 1 0
BITMAP
1FF0
1FF0
0000
0000
0000
E00C
600C
3018
3038
1830
1870
0C60
0CC0
06C0
0780
0380
0300
0300
0300
0300
0300
0300
0300
0300
ENDCHAR
STARTCHAR uni0233
ENCODING 563
SWIDTH 600 0
DWIDTH 17 0
BBX 13 25 2 -6
BITMAP
3FE0
3FE0
0000
0000
0000
C018
C030
6030
6030
7060
3060
3060
38C0
18C0
19C0
0D80
0D80
0F00
0700
0300
0600
0600
0600
FC00
F800
ENDCHAR
STARTCHAR uni0237
ENCODING 567
SWIDTH 600 0
DWIDTH 17 0
BBX 10 20 2 -6
BITMAP
FFC0
FFC0
00C0
00C0
00C0
00C0
00C0
00C0
00C0
00C0
00C0
00C0
00C0
00C0
00C0
00C0
00C0
00C0
FFC0
FF80
ENDCHAR
STARTCHAR uni0259
ENCODING 601
SWIDTH 600 0
DWIDTH 17 0
BBX 12 14 2 0
BITMAP
0F80
3FE0
7060
6030
0030
0030
FFF0
FFF0
C030
6030
6030
7060
3FE0
0F80
ENDCHAR
STARTCHAR uni0272
ENCODING 626
SWIDTH 600 0
DWIDTH 17 0
BBX 14 20 0 -6
BITMAP
19F0
1BF8
1E1C
180C
180C
180C
180C
180C
180C
180C
180C
180C
180C
180C
1800
1800
1800
1800
F000
E000
ENDCHAR
STARTCHAR circumflex
ENCODING 710
SWIDTH 600 0
DWIDTH 17 0
BBX 7 4 5 16
BITMAP
38
7C
EC
C6
ENDCHAR
STARTCHAR caron
ENCODING 711
SWIDTH 600 0
DWIDTH 17 0
BBX 8 4 4 16
BITMAP
E3
77
3E
1C
ENDCHAR
STARTCHAR breve
ENCODING 728
SWIDTH 600 0
DWIDTH 17 0
BBX 8 4 4 16
BITMAP
C1
63
7F
3C
ENDCHAR
STARTCHAR dotaccent
ENCODING 729
SWIDTH 600 0
DWIDTH 17 0
BBX 3 3 7 17
BITMAP
E0
E0
E0
ENDCHAR
STARTCHAR ring
ENCODING 730
SWIDTH 600 0
DWIDTH 17 0
BBX 7 8 5 15
BITMAP
30
7C
C6
C6
C6
CE
7C
30
ENDCHAR
STARTCHAR ogonek
ENCODING 731
SWIDTH 600 0
DWIDTH 17 0
BBX 5 6 6 -6
BITMAP
18
60
C0
C0
F8
78
ENDCHAR
STARTCHAR tilde
ENCODING 732
SWIDTH 600 0
DWIDTH 17 0
BBX 10 5 3 15
BITMAP
38C0
7CC0
6EC0
C7C0
C380
ENDCHAR
STARTCHAR hungarumlaut
ENCODING 733
SWIDTH 600 0
DWIDTH 17 0
BBX 10 4 5 16
BITMAP
39C0
3380
7700
E600
ENDCHAR
STARTCHAR gravecomb
ENCODING 768
SWIDTH 0 0
DWIDTH 0 0
BBX 5 4 -12 16
BITMAP
E0
70
30
18
ENDCHAR
STARTCHAR acutecomb
ENCODING 769
SWIDTH 0 0
DWIDTH 0 0
BBX 5 4 -10 16
BITMAP
38
30
60
E0
ENDCHAR
STARTCHAR uni0302
ENCODING 770
SWIDTH 0 0
DWIDTH 0 0
BBX 7 4 -12 16
BITMAP
38
7C
6E
C6
ENDCHAR
STARTCHAR tildecomb
ENCODING 771
SWIDTH 0 0
DWIDTH 0 0
BBX 10 5 -13 15
BITMAP
70C0
F880
DD80
CF80
C700
ENDCHAR
STARTCHAR uni0304
ENCODING 772
SWIDTH 0 0
DWIDTH 0 0
BBX 9 2 -13 17
BITMAP
FF80
FF80
ENDCHAR
STARTCHAR uni0306
ENCODING 774
SWIDTH 0 0
DWIDTH 0 0
BBX 8 4 -12 16
BITMAP
83
C6
FE
7C
ENDCHAR
STARTCHAR uni0307
ENCODING 775
SWIDTH 0 0
DWIDTH 0 0
BBX 3 3 -10 17
BITMAP
E0
E0
E0
ENDCHAR
STARTCHAR uni0308
ENCODING 776
SWIDTH 0 0
DWIDTH 0 0
BBX 9 3 -13 17
BITMAP
E380
E380
E380
ENDCHAR
STARTCHAR uni030A
ENCODING 778
SWIDTH 0 0
DWIDTH 0 0
BBX 7 8 -12 15
BITMAP
38
7C
C6
C6
C6
C6
7C
38
ENDCHAR
STARTCHAR uni030B
ENCODING 779
SWIDTH 0 0
DWIDTH 0 0
BBX 10 4 -12 16
BITMAP
19C0
3B80
7300
E600
ENDCHAR
STARTCHAR uni030C
ENCODING 780
SWIDTH 0 0
DWIDTH 0 0
BBX 9 4 -13 16
BITMAP
E380
7700
3E00
1C00
ENDCHAR
STARTCHAR uni0312
ENCODING 786
SWIDTH 0 0
DWIDTH 0 0
BBX 3 7 -10 15
BITMAP
60
40
40
C0
E0
E0
E0
ENDCHAR
STARTCHAR dotbelowcomb
ENCODING 803
SWIDTH 0 0
DWIDTH 0 0
BBX 3 3 -10 -6
BITMAP
E0
E0
E0
ENDCHAR
STARTCHAR uni0326
ENCODING 806
SWIDTH 0 0
DWIDTH 0 0
BBX 3 6 -10 -8
BITMAP
E0
E0
E0
60
40
C0
ENDCHAR
STARTCHAR uni0327
ENCODING 807
SWIDTH 0 0
DWIDTH 0 0
BBX 5 6 -11 -6
BITMAP
20
40
78
18
F8
F0
ENDCHAR
STARTCHAR uni0328
ENCODING 808
SWIDTH 0 0
DWIDTH 0 0
BBX 5 6 -11 -6
BITMAP
18
60
C0
C0
F8
78
ENDCHAR
STARTCHAR uni0335
ENCODING 821
SWIDTH 0 0
DWIDTH 0 0
BBX 9 2 -13 12
BITMAP
FF80
FF80
ENDCHAR
STARTCHAR uni00B5.dup1
ENCODING 956
SWIDTH 600 0
DWIDTH 17 0
BBX 11 20 3 -6
BITMAP
C060
C060
C060
C060
C060
C060
C060
C060
C060
C060
C0E0
E1E0
FF60
DE60
C000
C000
C000
C000
C000
C000
ENDCHAR
STARTCHAR Wgrave
ENCODING 7808
SWIDTH 600 0
DWIDTH 17 0
BBX 14 24 1 0
BITMAP
0E00
0700
0380
0000
0000
C384
C384
C284
C68C
468C
46CC
66CC
64CC
64CC
644C
6C4C
6C4C
6C6C
6C6C
6868
6868
6828
3838
3838
ENDCHAR
STARTCHAR wgrave
ENCODING 7809
SWIDTH 600 0
DWIDTH 17 0
BBX 15 20 1 0
BITMAP
0E00
0700
0380
0180
0000
0000
C386
C386
C384
C28C
468C
66CC
66CC
64CC
6448
6C48
2C78
2C78
3878
3838
ENDCHAR
STARTCHAR Wacute
ENCODING 7810
SWIDTH 600 0
DWIDTH 17 0
BBX 14 24 1 0
BITMAP
00E0
01C0
0300
0000
0000
C384
C384
C284
C68C
468C
46CC
66CC
64CC
64CC
644C
6C4C
6C4C
6C6C
6C6C
6868
6868
6828
3838
3838
ENDCHAR
STARTCHAR wacute
ENCODING 7811
SWIDTH 600 0
DWIDTH 17 0
BBX 15 20 1 0
BITMAP
00E0
01C0
0380
0300
0000
0000
C386
C386
C384
C28C
468C
66CC
66CC
64CC
6448
6C48
2C78
2C78
3878
3838
ENDCHAR
STARTCHAR Wdieresis
ENCODING 7812
SWIDTH 600 0
DWIDTH 17 0
BBX 14 24 1 0
BITMAP
1C70
1C70
1C70
0000
0000
C384
C384
C284
C68C
468C
46CC
66CC
64CC
64CC
644C
6C4C
6C4C
6C6C
6C6C
6868
6868
6828
3838
3838
ENDCHAR
STARTCHAR wdieresis
ENCODING 7813
SWIDTH 600 0
DWIDTH 17 0
BBX 15 20 1 0
BITMAP
1C70
1C70
1C70
0000
0000
0000
C386
C386
C384
C28C
468C
66CC
66CC
64CC
6448
6C48
2C78
2C78
3878
3838
ENDCHAR
STARTCHAR uni1E9E
ENCODING 7838
SWIDTH 600 0
DWIDTH 17 0
BBX 14 19 2 0
BITMAP
3FF0
7FF0
C030
C060
C0E0
C0C0
C180
C180
C380
C3F0
C038
C018
C01C
C00C
C01C
C018
C038
C7F0
C7E0
ENDCHAR
STARTCHAR uni1EA0
ENCODING 7840
SWIDTH 600 0
DWIDTH 17 0
BBX 14 25 1 -6
BITMAP
0380
0780
06C0
06C0
06C0
0C60
0C60
0C60
1860
1830
1830
3FF0
3FF8
3018
3018
601C
600C
600C
E00C
0000
0000
0000
0380
0380
0380
ENDCHAR
STARTCHAR uni1EA1
ENCODING 7841
SWIDTH 600 0
DWIDTH 17 0
BBX 14 20 2 -6
BITMAP
1F80
3FC0
70E0
6060
E060
0060
03E0
3FE0
E060
C060
C0E0
C1E0
FF7C
3C7C
0000
0000
0000
0F00
0F00
0F00
ENDCHAR
STARTCHAR uni1EB8
ENCODING 7864
SWIDTH 600 0
DWIDTH 17 0
BBX 12 25 3 -6
BITMAP
FFF0
FFF0
C000
C000
C000
C000
C000
C000
FFC0
FFC0
C000
C000
C000
C000
C000
C000
C000
FFF0
FFF0
0000
0000
0000
0E00
0E00
0E00
ENDCHAR
STARTCHAR uni1EB9
ENCODING 7865
SWIDTH 600 0
DWIDTH 17 0
BBX 12 20 2 -6
BITMAP
0F80
3FE0
7070
6030
6030
C030
FFF0
FFF0
C000
6000
6030
7070
3FE0
0F80
0000
0000
0000
0700
0700
0700
ENDCHAR
STARTCHAR uni1EBC
ENCODING 7868
SWIDTH 600 0
DWIDTH 17 0
BBX 12 25 3 0
BITMAP
3800
7C60
67C0
63C0
0000
0000
FFF0
FFF0
C000
C000
C000
C000
C000
C000
FFC0
FFC0
C000
C000
C000
C000
C000
C000
C000
FFF0
FFF0
ENDCHAR
STARTCHAR uni1EBD
ENCODING 7869
SWIDTH 600 0
DWIDTH 17 0
BBX 12 20 2 0
BITMAP
1C60
3E60
3360
23E0
01C0
0000
0F80
3FE0
7070
6030
6030
C030
FFF0
FFF0
C000
6000
6030
7070
3FE0
0F80
ENDCHAR
STARTCHAR uni1ECA
ENCODING 7882
SWIDTH 600 0
DWIDTH 17 0
BBX 12 25 2 -6
BITMAP
FFF0
FFF0
0600
0600
0600
0600
0600
0600
0600
0600
0600
0600
0600
0600
0600
0600
0600
FFF0
FFF0
0000
0000
0000
0700
0700
0700
ENDCHAR
STARTCHAR uni1ECB
ENCODING 7883
SWIDTH 600 0
DWIDTH 17 0
BBX 13 26 3 -6
BITMAP
0F00
0F00
0F00
0000
0000
0000
FE00
FE00
0600
0600
0600
0600
0600
0600
0600
0600
0600
0600
03F8
01F8
0000
0000
0000
0700
0700
0700
ENDCHAR
STARTCHAR uni1ECC
ENCODING 7884
SWIDTH 600 0
DWIDTH 17 0
BBX 13 25 2 -6
BITMAP
1F80
3FE0
7070
6030
C030
C018
C018
C018
C018
C018
C018
C018
C018
C018
C030
6030
7070
3FE0
0F80
0000
0000
0000
0700
0700
0700
ENDCHAR
STARTCHAR uni1ECD
ENCODING 7885
SWIDTH 600 0
DWIDTH 17 0
BBX 12 20 2 -6
BITMAP
0F80
3FE0
7060
6030
6030
C030
C030
C030
C030
6030
6030
7070
3FE0
0F80
0000
0000
0000
0700
0700
0700
ENDCHAR
STARTCHAR uni1EE4
ENCODING 7908
SWIDTH 600 0
DWIDTH 17 0
BBX 12 25 2 -6
BITMAP
C030
C030
C030
C030
C030
C030
C030
C030
C030
C030
C030
C030
C030
C030
E030
6030
7070
3FE0
0F80
0000
0000
0000
0700
0700
0700
ENDCHAR
STARTCHAR uni1EE5
ENCODING 7909
SWIDTH 600 0
DWIDTH 17 0
BBX 11 20 3 -6
BITMAP
C060
C060
C060
C060
C060
C060
C060
C060
C060
C060
C0E0
E1E0
7F60
3E60
0000
0000
0000
0E00
0E00
0E00
ENDCHAR
STARTCHAR Ygrave
ENCODING 7922
SWIDTH 600 0
DWIDTH 17 0
BBX 14 24 1 0
BITMAP
0E00
0700
0380
0000
0000
E00C
600C
3018
3038
1830
1870
0C60
0CC0
06C0
0780
0380
0300
0300
0300
0300
0300
0300
0300
0300
ENDCHAR
STARTCHAR ygrave
ENCODING 7923
SWIDTH 600 0
DWIDTH 17 0
BBX 13 26 2 -6
BITMAP
1C00
0E00
0700
0300
0000
0000
C018
C030
6030
6030
7060
3060
3060
38C0
18C0
19C0
0D80
0D80
0F00
0700
0300
0600
0600
0600
FC00
F800
ENDCHAR
STARTCHAR uni1EF8
ENCODING 7928
SWIDTH 600 0
DWIDTH 17 0
BBX 14 25 1 0
BITMAP
0E00
1F30
13F0
30E0
0000
0000
E00C
600C
3018
3038
1830
1870
0C60
0CC0
06C0
0780
0380
0300
0300
0300
0300
0300
0300
0300
0300
ENDCHAR
STARTCHAR uni1EF9
ENCODING 7929
SWIDTH 600 0
DWIDTH 17 0
BBX 13 26 2 -6
BITMAP
1C60
3E60
23E0
61C0
0000
0000
C018
C030
6030
6030
7060
3060
3060
38C0
18C0
19C0
0D80
0D80
0F00
0700
0300
0600
0600
0600
FC00
F800
ENDCHAR
STARTCHAR endash
ENCODING 8211
SWIDTH 600 0
DWIDTH 17 0
BBX 13 2 2 7
BITMAP
FFF8
FFF8
ENDCHAR
STARTCHAR emdash
ENCODING 8212
SWIDTH 600 0
DWIDTH 17 0
BBX 17 2 0 7
BITMAP
FFFF80
FFFF80
ENDCHAR
STARTCHAR quoteleft
ENCODING 8216
SWIDTH 600 0
DWIDTH 17 0
BBX 3 7 7 13
BITMAP
60
40
C0
C0
E0
E0
E0
ENDCHAR
STARTCHAR quoteright
ENCODING 8217
SWIDTH 600 0
DWIDTH 17 0
BBX 3 7 7 12
BITMAP
E0
E0
E0
60
40
40
C0
ENDCHAR
STARTCHAR quotesinglbase
ENCODING 8218
SWIDTH 600 0
DWIDTH 17 0
BBX 3 7 7 -4
BITMAP
E0
E0
E0
60
40
40
C0
ENDCHAR
STARTCHAR quotedblleft
ENCODING 8220
SWIDTH 600 0
DWIDTH 17 0
BBX 9 7 4 13
BITMAP
2100
6300
4300
C200
E780
E780
E780
ENDCHAR
STARTCHAR quotedblright
ENCODING 8221
SWIDTH 600 0
DWIDTH 17 0
BBX 9 7 4 12
BITMAP
E780
E780
E780
2100
6100
4300
4200
ENDCHAR
STARTCHAR quotedblbase
ENCODING 8222
SWIDTH 600 0
DWIDTH 17 0
BBX 9 7 4 -4
BITMAP
E780
E780
E780
2100
6100
4300
4200
ENDCHAR
STARTCHAR dagger
ENCODING 8224
SWIDTH 600 0
DWIDTH 17 0
BBX 9 15 4 6
BITMAP
1800
1800
1800
1800
FF80
FF80
1800
1800
1800
1800
1800
1800
1800
1800
1800
ENDCHAR
STARTCHAR daggerdbl
ENCODING 8225
SWIDTH 600 0
DWIDTH 17 0
BBX 9 14 4 7
BITMAP
1800
1800
1800
1800
FF80
FF80
1800
1800
1800
FF80
FF80
1800
1800
1800
ENDCHAR
STARTCHAR bullet
ENCODING 8226
SWIDTH 600 0
DWIDTH 17 0
BBX 7 7 5 6
BITMAP
38
FC
FE
FE
FE
7C
38
ENDCHAR
STARTCHAR ellipsis
ENCODING 8230
SWIDTH 600 0
DWIDTH 17 0
BBX 15 3 1 0
BITMAP
E39E
E39E
E39E
ENDCHAR
STARTCHAR perthousand
ENCODING 8240
SWIDTH 600 0
DWIDTH 17 0
BBX 15 19 1 0
BITMAP
3800
FC00
C600
8600
C600
7C0E
0078
03C0
1E00
F000
8000
0000
7C7C
C6C4
C686
8286
C6C6
6CEC
3838
ENDCHAR
STARTCHAR guilsinglleft
ENCODING 8249
SWIDTH 600 0
DWIDTH 17 0
BBX 6 11 5 2
BITMAP
1C
18
30
70
60
C0
60
70
30
18
1C
ENDCHAR
STARTCHAR guilsinglright
ENCODING 8250
SWIDTH 600 0
DWIDTH 17 0
BBX 6 11 6 2
BITMAP
C0
60
70
30
18
1C
18
30
30
60
E0
ENDCHAR
STARTCHAR fraction
ENCODING 8260
SWIDTH 600 0
DWIDTH 17 0
BBX 14 19 1 0
BITMAP
000C
000C
0018
0010
0030
0000
0000
0000
0000
0000
0000
0000
0000
0000
1800
3000
3000
6000
C000
ENDCHAR
STARTCHAR uni2070
ENCODING 8304
SWIDTH 600 0
DWIDTH 17 0
BBX 7 11 5 10
BITMAP
78
FE
C6
86
86
86
86
86
C6
FE
7C
ENDCHAR
STARTCHAR uni2074
ENCODING 8308
SWIDTH 600 0
DWIDTH 17 0
BBX 9 11 4 10
BITMAP
0E00
1E00
1600
3600
6600
6600
C600
FF80
FF80
0600
0600
ENDCHAR
STARTCHAR uni2075
ENCODING 8309
SWIDTH 600 0
DWIDTH 17 0
BBX 7 11 5 10
BITMAP
FE
FE
C0
D8
BC
C6
06
86
86
FE
7C
ENDCHAR
STARTCHAR uni2076
ENCODING 8310
SWIDTH 600 0
DWIDTH 17 0
BBX 7 11 5 10
BITMAP
78
FE
C6
86
80
BC
C6
86
86
FE
7C
ENDCHAR
STARTCHAR uni2077
ENCODING 8311
SWIDTH 600 0
DWIDTH 17 0
BBX 7 11 5 10
BITMAP
FE
FE
86
06
0C
18
18
10
30
30
20
ENDCHAR
STARTCHAR uni2078
ENCODING 8312
SWIDTH 600 0
DWIDTH 17 0
BBX 8 11 4 10
BITMAP
3E
7F
43
43
76
3E
63
C1
C1
7F
3E
ENDCHAR
STARTCHAR uni2079
ENCODING 8313
SWIDTH 600 0
DWIDTH 17 0
BBX 7 11 5 10
BITMAP
7C
FE
86
86
C6
FE
06
86
C6
FE
78
ENDCHAR
STARTCHAR uni2080
ENCODING 8320
SWIDTH 600 0
DWIDTH 17 0
BBX 7 11 5 -2
BITMAP
78
FE
C6
86
86
86
86
86
C6
FE
7C
ENDCHAR
STARTCHAR uni2081
ENCODING 8321
SWIDTH 600 0
DWIDTH 17 0
BBX 7 11 5 -2
BITMAP
10
10
F0
D0
10
10
10
10
10
FE
FE
ENDCHAR
STARTCHAR uni2082
ENCODING 8322
SWIDTH 600 0
DWIDTH 17 0
BBX 7 11 5 -2
BITMAP
7C
FE
C6
86
06
0C
38
70
C0
FE
FE
ENDCHAR
STARTCHAR uni2083
ENCODING 8323
SWIDTH 600 0
DWIDTH 17 0
BBX 8 11 4 -2
BITMAP
3E
7F
63
03
06
1E
03
C1
43
7F
3E
ENDCHAR
STARTCHAR uni2084
ENCODING 8324
SWIDTH 600 0
DWIDTH 17 0
BBX 9 11 4 -2
BITMAP
0E00
1E00
1600
3600
6600
6600
C600
FF80
FF80
0600
0600
ENDCHAR
STARTCHAR uni2085
ENCODING 8325
SWIDTH 600 0
DWIDTH 17 0
BBX 7 11 5 -2
BITMAP
FE
FE
C0
D8
BC
C6
06
86
86
FE
7C
ENDCHAR
STARTCHAR uni2086
ENCODING 8326
SWIDTH 600 0
DWIDTH 17 0
BBX 7 11 5 -2
BITMAP
78
FE
C6
80
BC
EE
C6
86
C6
FE
7C
ENDCHAR
STARTCHAR uni2087
ENCODING 8327
SWIDTH 600 0
DWIDTH 17 0
BBX 7 11 5 -2
BITMAP
FE
FE
86
06
0C
18
18
10
30
30
20
ENDCHAR
STARTCHAR uni2088
ENCODING 8328
SWIDTH 600 0
DWIDTH 17 0
BBX 8 11 4 -2
BITMAP
3E
7F
43
43
76
3E
63
C1
C1
7F
3E
ENDCHAR
STARTCHAR uni2089
ENCODING 8329
SWIDTH 600 0
DWIDTH 17 0
BBX 7 11 5 -2
BITMAP
7C
FE
86
86
C6
FE
06
86
C6
FE
78
ENDCHAR
STARTCHAR Euro
ENCODING 8364
SWIDTH 600 0
DWIDTH 17 0
BBX 14 19 1 0
BITMAP
07E0
0FF0
1C38
1818
381C
300C
300C
FF80
FF80
3000
FF80
FF80
300C
300C
381C
1818
1C38
0FF0
07E0
ENDCHAR
STARTCHAR uni20BF
ENCODING 8383
SWIDTH 600 0
DWIDTH 17 0
BBX 12 23 3 -2
BITMAP
3300
3300
FF80
FFC0
C0E0
C060
C060
C060
C060
C0E0
FF80
FFC0
C060
C030
C030
C030
C030
C030
C060
FFE0
FF80
3300
3300
ENDCHAR
STARTCHAR uni2116
ENCODING 8470
SWIDTH 600 0
DWIDTH 17 0
BBX 14 19 2 0
BITMAP
E638
E66C
E64C
E24C
F24C
F24C
F24C
D24C
D278
D200
DA00
DA7C
DA7C
CA00
CA00
CA00
CE00
CE00
CE00
ENDCHAR
STARTCHAR trademark
ENCODING 8482
SWIDTH 600 0
DWIDTH 17 0
BBX 14 10 1 9
BITMAP
FDCC
31CC
31DC
31DC
31BC
31AC
31AC
318C
318C
318C
ENDCHAR
STARTCHAR uni2150
ENCODING 8528
SWIDTH 600 0
DWIDTH 17 0
BBX 15 19 1 0
BITMAP
300C
300C
F018
F010
3030
3000
3000
3000
30FE
FCFE
FCC2
0006
000C
000C
1818
3018
3010
6030
C030
ENDCHAR
STARTCHAR uni2151
ENCODING 8529
SWIDTH 600 0
DWIDTH 17 0
BBX 15 19 1 0
BITMAP
300C
300C
F018
F010
3030
3000
3000
3000
3000
FC7C
FCC6
00C6
00C6
00EE
187A
3002
30C6
606E
C03C
ENDCHAR
STARTCHAR uni2152
ENCODING 8530
SWIDTH 600 0
DWIDTH 17 0
BBX 15 19 1 0
BITMAP
300C
300C
F018
F010
3030
3000
3000
3000
FC00
FCDE
00D2
01D2
01D2
00D2
18D2
30D2
30D2
60DA
C0CE
ENDCHAR
STARTCHAR uni2153
ENCODING 8531
SWIDTH 600 0
DWIDTH 17 0
BBX 15 19 1 0
BITMAP
300C
300C
F018
F010
3030
3000
3000
3000
FC00
FC7C
00C6
00C6
0006
0018
1806
3082
30C2
60FE
C07C
ENDCHAR
STARTCHAR uni2154
ENCODING 8532
SWIDTH 600 0
DWIDTH 17 0
BBX 15 19 1 0
BITMAP
780C
FC0C
8618
8610
0C30
1800
7000
C000
FE00
FE7C
00C6
00C6
0006
0018
1806
3082
30C2
60FE
C07C
ENDCHAR
STARTCHAR uni2155
ENCODING 8533
SWIDTH 600 0
DWIDTH 17 0
BBX 15 19 1 0
BITMAP
300C
300C
F018
F010
3030
3000
3000
3000
FC7E
FC7E
00C0
00C0
00DC
00FE
1806
3002
30C6
60FE
C07C
ENDCHAR
STARTCHAR uni2156
ENCODING 8534
SWIDTH 600 0
DWIDTH 17 0
BBX 15 19 1 0
BITMAP
780C
FC0C
8618
8610
0C30
1800
7000
C000
FE7E
FE7E
00C0
00C0
00DC
00FE
1806
3002
30C6
60FE
C07C
ENDCHAR
STARTCHAR uni2157
ENCODING 8535
SWIDTH 600 0
DWIDTH 17 0
BBX 15 19 1 0
BITMAP
780C
FC0C
C618
0410
3830
0400
0600
8600
C67E
7C7E
00C0
00C0
00DC
00FE
1806
3002
30C6
60FE
C07C
ENDCHAR
STARTCHAR uni2158
ENCODING 8536
SWIDTH 600 0
DWIDTH 17 0
BBX 15 19 1 0
BITMAP
1C0C
3C0C
2C18
6C30
CC30
8C00
FE00
FE00
0C7E
0C7E
00C0
00C0
00DC
00FE
1806
3002
30C6
60FE
C07C
ENDCHAR
STARTCHAR uni2159
ENCODING 8537
SWIDTH 600 0
DWIDTH 17 0
BBX 15 19 1 0
BITMAP
300C
300C
F018
F010
3030
3000
3000
3000
FC00
FC7C
00C6
00C6
00C0
00FE
18C6
30C2
30C2
607E
C03C
ENDCHAR
STARTCHAR uni215A
ENCODING 8538
SWIDTH 600 0
DWIDTH 17 0
BBX 15 19 1 0
BITMAP
FC0C
FC0C
C018
8010
BC30
C600
0600
8600
C600
FC7C
30C6
00C6
00C0
00FE
18C6
30C2
30C2
607E
C03C
ENDCHAR
STARTCHAR oneeighth
ENCODING 8539
SWIDTH 600 0
DWIDTH 17 0
BBX 15 19 1 0
BITMAP
300C
300C
F018
F010
3030
3000
3000
3000
3000
FC7C
FCC6
00C6
00C6
007C
18C6
3082
3082
60EE
C07C
ENDCHAR
STARTCHAR threeeighths
ENCODING 8540
SWIDTH 600 0
DWIDTH 17 0
BBX 15 19 1 0
BITMAP
780C
FC0C
C618
0410
3C30
0400
0600
8600
C600
7C7C
00C6
00C6
00C6
0078
18C6
3082
3082
60EE
C07C
ENDCHAR
STARTCHAR fiveeighths
ENCODING 8541
SWIDTH 600 0
DWIDTH 17 0
BBX 15 19 1 0
BITMAP
FC0C
FC0C
C018
8010
BC30
C600
0600
8600
C600
FC7C
30C6
00C6
00C6
0038
18C6
3082
3082
60EE
C07C
ENDCHAR
STARTCHAR seveneighths
ENCODING 8542
SWIDTH 600 0
DWIDTH 17 0
BBX 16 19 0 0
BITMAP
FF06
FF06
C30C
0608
0418
0C00
0800
1800
1800
103E
0063
0063
0063
003C
0C63
1841
1841
3077
603E
ENDCHAR
STARTCHAR uni215F
ENCODING 8543
SWIDTH 600 0
DWIDTH 17 0
BBX 14 19 1 0
BITMAP
300C
300C
F018
F010
3030
3000
3000
3000
3000
FC00
FC00
0000
0000
0000
1800
3000
3000
6000
C000
ENDCHAR
STARTCHAR uni2189
ENCODING 8585
SWIDTH 600 0
DWIDTH 17 0
BBX 15 19 1 0
BITMAP
780C
FC0C
8618
8610
8630
8600
8600
8600
C600
7C7C
10C6
00C6
0006
0018
1806
3082
30C2
60FE
C07C
ENDCHAR
STARTCHAR arrowleft
ENCODING 8592
SWIDTH 600 0
DWIDTH 17 0
BBX 15 13 1 3
BITMAP
0C00
1C00
3800
3000
6000
FFFE
FFFE
6000
7000
3800
1800
0C00
0400
ENDCHAR
STARTCHAR arrowup
ENCODING 8593
SWIDTH 600 0
DWIDTH 17 0
BBX 13 16 2 0
BITMAP
0200
0700
0F80
1FC0
7660
E638
C618
0600
0600
0600
0600
0600
0600
0600
0600
0600
ENDCHAR
STARTCHAR arrowright
ENCODING 8594
SWIDTH 600 0
DWIDTH 17 0
BBX 15 14 1 3
BITMAP
0040
00E0
0070
0030
0018
000C
FFFE
FFFE
000C
0018
0038
0070
00E0
0040
ENDCHAR
STARTCHAR arrowdown
ENCODING 8595
SWIDTH 600 0
DWIDTH 17 0
BBX 13 16 2 -1
BITMAP
0600
0600
0600
0600
0600
0600
0600
0600
0600
C618
E638
7660
1FC0
0F80
0700
0200
ENDCHAR
STARTCHAR arrowboth
ENCODING 8596
SWIDTH 600 0
DWIDTH 17 0
BBX 16 12 0 4
BITMAP
0010
0C18
181C
300E
7006
7FFF
FFFF
6006
300E
180C
0C18
0410
ENDCHAR
STARTCHAR arrowupdn
ENCODING 8597
SWIDTH 600 0
DWIDTH 17 0
BBX 11 18 3 1
BITMAP
0400
0E00
1F00
7D80
ECE0
CC60
0C00
0C00
0C00
0C00
0C00
0C00
8C00
CC60
6DC0
3F80
1F00
0C00
ENDCHAR
STARTCHAR uni2196
ENCODING 8598
SWIDTH 600 0
DWIDTH 17 0
BBX 13 13 2 2
BITMAP
FFC0
FFC0
F000
F800
DC00
CE00
C700
C380
C1C0
C0E0
0070
0038
0018
ENDCHAR
STARTCHAR uni2197
ENCODING 8599
SWIDTH 600 0
DWIDTH 17 0
BBX 13 13 2 2
BITMAP
3FF8
3FF8
0078
00F8
01D8
0398
0718
0E18
1C18
3818
7000
E000
C000
ENDCHAR
STARTCHAR uni2198
ENCODING 8600
SWIDTH 600 0
DWIDTH 17 0
BBX 13 13 2 0
BITMAP
C000
E000
7000
3818
1C18
0E18
0718
0398
01D8
00F8
0078
3FF8
3FF8
ENDCHAR
STARTCHAR uni2199
ENCODING 8601
SWIDTH 600 0
DWIDTH 17 0
BBX 13 13 2 0
BITMAP
0018
0038
0070
C0E0
C1C0
C380
C700
CE00
DC00
F800
F000
FFC0
FFC0
ENDCHAR
STARTCHAR uni21BA
ENCODING 8634
SWIDTH 600 0
DWIDTH 17 0
BBX 15 20 1 0
BITMAP
0100
0380
0700
0600
0F80
1FF0
0C38
061C
030C
8106
C006
C006
C006
C006
C006
C00C
600C
3038
1FF0
07C0
ENDCHAR
STARTCHAR uni21BB
ENCODING 8635
SWIDTH 600 0
DWIDTH 17 0
BBX 15 20 1 0
BITMAP
0100
0300
0180
00C0
07E0
1FE0
38C0
71C0
E180
C306
C006
C006
8006
C006
C006
C00C
600C
3038
1FF0
07C0
ENDCHAR
STARTCHAR partialdiff
ENCODING 8706
SWIDTH 600 0
DWIDTH 17 0
BBX 13 19 2 0
BITMAP
3F00
3F80
00E0
0060
0070
0030
0030
1F30
3FB0
7078
6038
E038
C038
C030
C030
6030
7070
3FE0
0F80
ENDCHAR
STARTCHAR emptyset
ENCODING 8709
SWIDTH 600 0
DWIDTH 17 0
BBX 13 12 2 4
BITMAP
0010
0FB8
3FF0
30E0
61F0
43B0
4730
4C30
7830
3060
7FC0
CF80
ENDCHAR
STARTCHAR product
ENCODING 8719
SWIDTH 600 0
DWIDTH 17 0
BBX 15 19 1 0
BITMAP
FFFE
FFFE
1830
1830
1830
1830
1830
1830
1830
1830
1830
1830
1830
1830
1830
1830
1830
1830
1830
ENDCHAR
STARTCHAR summation
ENCODING 8721
SWIDTH 600 0
DWIDTH 17 0
BBX 11 19 3 0
BITMAP
FFE0
FFE0
C000
6000
7000
3000
1800
1C00
0C00
0600
0C00
1C00
1800
3000
7000
6000
C000
FFE0
FFE0
ENDCHAR
STARTCHAR minus
ENCODING 8722
SWIDTH 600 0
DWIDTH 17 0
BBX 12 2 2 8
BITMAP
FFF0
FFF0
ENDCHAR
STARTCHAR radical
ENCODING 8730
SWIDTH 600 0
DWIDTH 17 0
BBX 15 19 1 0
BITMAP
003E
003E
0060
0060
0060
E060
60C0
60C0
60C0
30C0
3180
3180
3180
1980
1B00
1B00
1B00
0E00
0E00
ENDCHAR
STARTCHAR infinity
ENCODING 8734
SWIDTH 600 0
DWIDTH 17 0
BBX 14 8 1 5
BITMAP
3878
7CFC
468C
C384
C384
468C
7CFC
3878
ENDCHAR
STARTCHAR integral
ENCODING 8747
SWIDTH 600 0
DWIDTH 17 0
BBX 12 25 2 -4
BITMAP
01F0
03F0
0600
0600
0600
0600
0600
0600
0600
0600
0600
0600
0600
0600
0600
0600
0600
0600
0600
0600
0600
0600
0600
FE00
FC00
ENDCHAR
STARTCHAR approxequal
ENCODING 8776
SWIDTH 600 0
DWIDTH 17 0
BBX 12 10 2 4
BITMAP
3C10
7E30
6730
C3E0
0000
3800
7E10
6730
C3F0
00E0
ENDCHAR
STARTCHAR notequal
ENCODING 8800
SWIDTH 600 0
DWIDTH 17 0
BBX 12 14 2 2
BITMAP
0180
0180
0100
0100
FFF0
FFF0
0200
0200
FFF0
FFF0
0400
0C00
0C00
0800
ENDCHAR
STARTCHAR lessequal
ENCODING 8804
SWIDTH 600 0
DWIDTH 17 0
BBX 12 12 2 3
BITMAP
0070
07F0
7F00
F000
F000
7F00
07F0
0070
0000
0000
FFF0
FFF0
ENDCHAR
STARTCHAR greaterequal
ENCODING 8805
SWIDTH 600 0
DWIDTH 17 0
BBX 12 12 2 3
BITMAP
F000
7F00
07F0
0070
0070
0FF0
FF00
F000
0000
0000
FFF0
FFF0
ENDCHAR
STARTCHAR uni231A
ENCODING 8986
SWIDTH 600 0
DWIDTH 17 0
BBX 13 19 2 0
BITMAP
1F80
1F80
1F80
3FE0
7FF0
C018
8018
8058
99D8
8F18
8618
8018
8018
C018
FFF0
3FE0
1F80
1F80
1F80
ENDCHAR
STARTCHAR uni2460
ENCODING 9312
SWIDTH 600 0
DWIDTH 17 0
BBX 15 21 1 -1
BITMAP
0380
1FF0
3838
600C
C004
C106
C106
8F06
8D06
8106
8106
8106
8106
8106
C106
CFE6
C004
600C
3838
1FF0
0780
ENDCHAR
STARTCHAR uni2461
ENCODING 9313
SWIDTH 600 0
DWIDTH 17 0
BBX 15 21 1 -1
BITMAP
0380
1FF0
3838
600C
C004
C7C6
CEC6
8C66
8C66
8066
80C6
8386
8606
8C06
CC06
CFE6
C004
600C
3838
1FF0
0780
ENDCHAR
STARTCHAR uni2462
ENCODING 9314
SWIDTH 600 0
DWIDTH 17 0
BBX 15 21 1 -1
BITMAP
0380
1FF0
3838
600C
C004
C786
CFC6
8C66
8066
80C6
83C6
8066
8866
8866
CEE6
C7C6
C00C
600C
3038
1FF0
0780
ENDCHAR
STARTCHAR uni2463
ENCODING 9315
SWIDTH 600 0
DWIDTH 17 0
BBX 15 21 1 -1
BITMAP
0380
1FF0
3838
600C
C004
C386
C286
8686
8486
8C86
8886
9886
9886
9FE6
8086
C086
C004
600C
3038
1FF0
0780
ENDCHAR
STARTCHAR uni2464
ENCODING 9316
SWIDTH 600 0
DWIDTH 17 0
BBX 15 21 1 -1
BITMAP
0380
1FF0
3838
600C
C004
CFE6
CF06
8C06
8C06
8FC6
8EE6
8066
8066
8C66
CEE6
C7C6
C004
600C
3038
1FF0
0780
ENDCHAR
STARTCHAR uni2465
ENCODING 9317
SWIDTH 600 0
DWIDTH 17 0
BBX 15 21 1 -1
BITMAP
0380
1FF0
3838
600C
C004
C786
CFC6
8C66
8866
8806
8BC6
8C66
8866
8C66
CEC6
C786
C004
600C
3038
1FF0
0780
ENDCHAR
STARTCHAR uni2466
ENCODING 9318
SWIDTH 600 0
DWIDTH 17 0
BBX 15 21 1 -1
BITMAP
0380
1FF0
3838
600C
C004
CFE6
C866
8866
80C6
80C6
8186
8186
8106
8306
C306
C206
C00C
600C
3038
1FF0
0780
ENDCHAR
STARTCHAR uni2467
ENCODING 9319
SWIDTH 600 0
DWIDTH 17 0
BBX 15 21 1 -1
BITMAP
0380
1FF0
3838
600C
C004
C786
CEC6
8C66
8C66
8CC6
8786
8C66
8826
8866
CEE6
C7C6
C00C
600C
3038
1FF0
0780
ENDCHAR
STARTCHAR uni2468
ENCODING 9320
SWIDTH 600 0
DWIDTH 17 0
BBX 15 21 1 -1
BITMAP
0380
1FF0
3838
600C
C004
C786
CFC6
8C66
8866
8C66
87E6
8066
8C66
8C66
CEC6
C786
C00C
600C
3038
1FF0
0780
ENDCHAR
STARTCHAR uni2469
ENCODING 9321
SWIDTH 600 0
DWIDTH 17 0
BBX 15 21 1 -1
BITMAP
0380
1FF0
3838
610C
C104
CF06
C106
8106
8FE6
8006
8006
87C6
8CE6
8866
C866
CC66
C7C4
600C
3838
1FF0
0780
ENDCHAR
STARTCHAR uni24EA
ENCODING 9450
SWIDTH 600 0
DWIDTH 17 0
BBX 15 21 1 -1
BITMAP
0380
1FF0
3838
600C
C004
C786
CFC6
8C66
8866
8866
8866
8866
8866
8C66
CEC6
C786
C00C
600C
3038
1FF0
0780
ENDCHAR
STARTCHAR uni24FF
ENCODING 9471
SWIDTH 600 0
DWIDTH 17 0
BBX 15 21 1 -1
BITMAP
0780
1FF0
3FF8
7FFC
FFFC
F87E
F13E
F39E
F79E
F79E
F79E
F79E
F79E
F39E
F13E
F87E
FFFC
7FFC
3FF8
1FF0
0780
ENDCHAR
STARTCHAR uni25B6
ENCODING 9654
SWIDTH 600 0
DWIDTH 17 0
BBX 14 17 2 1
BITMAP
8000
E000
F800
FC00
FF00
FFC0
FFE0
FFF8
FFFC
FFF8
FFE0
FF80
FE00
FC00
F000
C000
8000
ENDCHAR
STARTCHAR uni25B7
ENCODING 9655
SWIDTH 600 0
DWIDTH 17 0
BBX 14 17 2 1
BITMAP
8000
E000
F800
9C00
8F00
83C0
80E0
8038
801C
8078
81E0
8380
8E00
BC00
F000
C000
8000
ENDCHAR
STARTCHAR lozenge
ENCODING 9674
SWIDTH 600 0
DWIDTH 17 0
BBX 12 19 2 0
BITMAP
0700
0F80
0D80
19C0
18C0
30E0
3060
6060
6030
C030
6030
6060
3060
30C0
18C0
19C0
0D80
0F80
0700
ENDCHAR
STARTCHAR uni25EF
ENCODING 9711
SWIDTH 600 0
DWIDTH 17 0
BBX 15 15 1 2
BITMAP
07C0
1FF0
3838
600C
600C
C004
C006
C006
C006
C004
600C
601C
3838
1FF0
07C0
ENDCHAR
STARTCHAR uni2776
ENCODING 10102
SWIDTH 600 0
DWIDTH 17 0
BBX 15 21 1 -1
BITMAP
07C0
1FF0
7FF8
7FFC
FFFC
FEFE
FEFE
F0FE
F2FE
FEFE
FEFE
FEFE
FEFE
FEFE
F01E
F01E
FFFC
7FFC
3FF8
1FF0
07C0
ENDCHAR
STARTCHAR uni2777
ENCODING 10103
SWIDTH 600 0
DWIDTH 17 0
BBX 15 21 1 -1
BITMAP
0780
1FF0
3FF8
7FFC
FFFC
FC7E
F83E
F39E
F39E
FF9E
FF3E
FE7E
F8FE
F3FE
F3FE
F01E
FFFC
7FFC
7FF8
1FF0
07C0
ENDCHAR
STARTCHAR uni2778
ENCODING 10104
SWIDTH 600 0
DWIDTH 17 0
BBX 15 21 1 -1
BITMAP
0780
1FF0
3FF8
7FFC
FFFC
F87E
F03E
F39E
F39E
FFBE
FC7E
FF9E
F79E
F79E
F11E
F83E
FFFC
7FFC
3FF8
1FF0
0780
ENDCHAR
STARTCHAR uni2779
ENCODING 10105
SWIDTH 600 0
DWIDTH 17 0
BBX 15 21 1 -1
BITMAP
07C0
1FF0
7FF8
7FFC
FFFC
FC7E
FD7E
F97E
FB7E
F37E
F77E
E77E
E01E
E01E
FF7E
FF7E
FFFC
7FFC
3FF8
1FF0
07C0
ENDCHAR
STARTCHAR uni277A
ENCODING 10106
SWIDTH 600 0
DWIDTH 17 0
BBX 15 21 1 -1
BITMAP
07C0
1FF0
7FF8
7FFC
FFFC
F01E
F01E
F3FE
F3FE
F03E
F39E
FF9E
F79E
F39E
F03E
F87E
FFFC
7FFC
3FF8
1FF0
0780
ENDCHAR
STARTCHAR uni277B
ENCODING 10107
SWIDTH 600 0
DWIDTH 17 0
BBX 15 21 1 -1
BITMAP
0780
1FF0
3FF8
7FFC
FFFC
F87E
F33E
F39E
F7FE
F47E
F43E
F39E
F79E
F79E
F39E
F83E
FFFC
7FFC
3FF8
1FF0
0780
ENDCHAR
STARTCHAR uni277C
ENCODING 10108
SWIDTH 600 0
DWIDTH 17 0
BBX 15 21 1 -1
BITMAP
07C0
1FF0
7FF8
7FFC
FFFC
F01E
F79E
F79E
FFBE
FF3E
FF7E
FE7E
FEFE
FCFE
FCFE
FDFE
FFFC
7FFC
3FF8
1FF0
07C0
ENDCHAR
STARTCHAR uni277D
ENCODING 10109
SWIDTH 600 0
DWIDTH 17 0
BBX 15 21 1 -1
BITMAP
0FC0
3FF0
7FF8
7FFC
FFFC
F83E
F39E
F79E
F39E
F83E
F87E
F39E
F7DE
F7DE
F39E
F83E
FFFC
7FFC
3FF8
1FF0
0780
ENDCHAR
STARTCHAR uni277E
ENCODING 10110
SWIDTH 600 0
DWIDTH 17 0
BBX 15 21 1 -1
BITMAP
0780
1FF0
3FF8
7FFC
FFFC
F83E
F39E
F79E
F79E
F39E
F01E
F89E
FF9E
F39E
F3BE
F87E
FFFC
7FFC
3FF8
1FF0
0780
ENDCHAR
STARTCHAR uni277F
ENCODING 10111
SWIDTH 600 0
DWIDTH 17 0
BBX 15 20 1 0
BITMAP
0FC0
3FF0
7FF8
7EFC
FEFC
F2FE
FEFE
FEFE
F01E
F01E
FFFE
F83E
F39E
F79E
F79E
F39E
F83C
7FFC
3FF8
1FE0
ENDCHAR
STARTCHAR uni2B1B
ENCODING 11035
SWIDTH 600 0
DWIDTH 17 0
BBX 14 14 1 3
BITMAP
FFFC
FFFC
FFFC
FFFC
FFFC
FFFC
FFFC
FFFC
FFFC
FFFC
FFFC
FFFC
FFFC
FFFC
ENDCHAR
STARTCHAR uni2B1C
ENCODING 11036
SWIDTH 600 0
DWIDTH 17 0
BBX 14 15 1 2
BITMAP
FFFC
FFFC
C004
C004
C004
C004
C004
C004
C004
C004
C004
C004
C004
FFFC
FFFC
ENDCHAR
STARTCHAR uni2B24
ENCODING 11044
SWIDTH 600 0
DWIDTH 17 0
BBX 15 15 1 2
BITMAP
07C0
1FF0
3FF8
7FFC
7FFC
FFFC
FFFE
FFFE
FFFE
FFFC
7FFC
7FFC
3FF8
1FF0
0380
ENDCHAR
STARTCHAR uniE132
ENCODING 57650
SWIDTH 600 0
DWIDTH 17 0
BBX 13 26 3 -6
BITMAP
3838
7070
E0E0
C1C0
0000
0000
E0C0
E0C0
E0C0
E0C0
E0C0
E0C0
E0C0
E0C0
E0C0
E0C0
E0C0
E0C0
E0C0
E0C0
00C0
00C0
00C0
00C0
0FC0
0F80
ENDCHAR
STARTCHAR uniE133
ENCODING 57651
SWIDTH 600 0
DWIDTH 17 0
BBX 13 24 2 0
BITMAP
3838
6060
C1C0
0000
0000
C3F8
C3F8
C018
C018
C018
C018
C018
C018
C018
C018
C018
CC18
CC18
CC18
CC18
CC18
C630
C7F0
C3E0
ENDCHAR
STARTCHAR fi
ENCODING 64257
SWIDTH 600 0
DWIDTH 17 0
BBX 13 20 1 0
BITMAP
0F18
1F18
3818
3000
3000
3000
FFF8
FFF8
3018
3018
3018
3018
3018
3018
3018
3018
3018
3018
3018
3018
ENDCHAR
STARTCHAR fl
ENCODING 64258
SWIDTH 600 0
DWIDTH 17 0
BBX 13 20 1 0
BITMAP
0F18
1F18
3818
3018
3018
3018
FF18
FF18
3018
3018
3018
3018
3018
3018
3018
3018
3018
3018
3018
3018
ENDCHAR
STARTCHAR .notdef
ENCODING -1
SWIDTH 600 0
DWIDTH 17 0
BBX 13 19 2 0
BITMAP
FFE0
FFF0
FDF8
DDF8
E5F8
F9F8
FFF8
E0F8
D678
DB78
C0F8
E0F8
FFF8
FDF8
DDF8
C5F8
F1F8
FFF8
FFF8
ENDCHAR
STARTCHAR i.loclTRK
ENCODING -1
SWIDTH 600 0
DWIDTH 17 0
BBX 13 20 3 0
BITMAP
0F00
0F00
0F00
0000
0000
0000
FE00
FE00
0600
0600
0600
0600
0600
0600
0600
0600
0600
0600
03F8
01F8
ENDCHAR
STARTCHAR a.ss01
ENCODING -1
SWIDTH 600 0
DWIDTH 17 0
BBX 12 14 2 0
BITMAP
1F30
3FB0
70F0
6070
6030
E030
C030
C030
C030
6030
6070
70F0
3FB0
1F30
ENDCHAR
STARTCHAR aacute.ss01
ENCODING -1
SWIDTH 600 0
DWIDTH 17 0
BBX 12 20 2 0
BITMAP
01C0
0180
0300
0700
0000
0000
1F30
3FB0
70F0
6070
6030
E030
C030
C030
C030
6030
6070
70F0
3FB0
1F30
ENDCHAR
STARTCHAR abreve.ss01
ENCODING -1
SWIDTH 600 0
DWIDTH 17 0
BBX 12 20 2 0
BITMAP
1060
18C0
1FC0
0F80
0000
0000
1F30
3FB0
70F0
6070
6030
E030
C030
C030
C030
6030
6070
70F0
3FB0
1F30
ENDCHAR
STARTCHAR acircumflex.ss01
ENCODING -1
SWIDTH 600 0
DWIDTH 17 0
BBX 12 20 2 0
BITMAP
0700
0F80
0DC0
18C0
0000
0000
1F30
3FB0
70F0
6070
6030
E030
C030
C030
C030
6030
6070
70F0
3FB0
1F30
ENDCHAR
STARTCHAR adieresis.ss01
ENCODING -1
SWIDTH 600 0
DWIDTH 17 0
BBX 12 20 2 0
BITMAP
38E0
38E0
38E0
0000
0000
0000
1F30
3FB0
70F0
6070
6030
E030
C030
C030
C030
6030
6070
70F0
3FB0
1F30
ENDCHAR
STARTCHAR uni1EA1.ss01
ENCODING -1
SWIDTH 600 0
DWIDTH 17 0
BBX 12 20 2 -6
BITMAP
1F30
3FB0
70F0
6070
6030
E030
C030
C030
C030
6030
6070
70F0
3FB0
1F30
0000
0000
0000
0700
0700
0700
ENDCHAR
STARTCHAR agrave.ss01
ENCODING -1
SWIDTH 600 0
DWIDTH 17 0
BBX 12 20 2 0
BITMAP
1C00
0E00
0600
0300
0000
0000
1F30
3FB0
70F0
6070
6030
E030
C030
C030
C030
6030
6070
70F0
3FB0
1F30
ENDCHAR
STARTCHAR amacron.ss01
ENCODING -1
SWIDTH 600 0
DWIDTH 17 0
BBX 12 19 2 0
BITMAP
3FE0
3FE0
0000
0000
0000
1F30
3FB0
70F0
6070
6030
E030
C030
C030
C030
6030
6070
70F0
3FB0
1F30
ENDCHAR
STARTCHAR aogonek.ss01
ENCODING -1
SWIDTH 600 0
DWIDTH 17 0
BBX 12 20 2 -6
BITMAP
1F30
3FB0
70F0
6070
6030
E030
C030
C030
C030
6030
6070
70F0
3FB0
1F30
0060
00C0
0080
0180
01F0
00F0
ENDCHAR
STARTCHAR aring.ss01
ENCODING -1
SWIDTH 600 0
DWIDTH 17 0
BBX 12 23 2 0
BITMAP
0700
0F80
18C0
18C0
18C0
0F80
0700
0000
0000
1F30
3FB0
70F0
6070
6030
E030
C030
C030
C030
6030
6070
70F0
3FB0
1F30
ENDCHAR
STARTCHAR aringacute.ss01
ENCODING -1
SWIDTH 600 0
DWIDTH 17 0
BBX 12 28 2 0
BITMAP
01C0
0380
0700
0600
0000
0700
0F80
18C0
18C0
18C0
0F80
0700
0000
0000
1F30
3FB0
70F0
6070
6030
E030
C030
C030
C030
6030
6070
70F0
3FB0
1F30
ENDCHAR
STARTCHAR atilde.ss01
ENCODING -1
SWIDTH 600 0
DWIDTH 17 0
BBX 12 20 2 0
BITMAP
1C20
3E20
3360
31E0
0040
0000
1F30
3FB0
70F0
6070
6030
E030
C030
C030
C030
6030
6070
70F0
3FB0
1F30
ENDCHAR
STARTCHAR g.ss02
ENCODING -1
SWIDTH 600 0
DWIDTH 17 0
BBX 12 20 2 -6
BITMAP
1F30
3FB0
70F0
6070
6030
E030
C030
C030
E030
6030
6070
70F0
3FB0
1F30
0030
6030
6030
7060
3FE0
0F80
ENDCHAR
STARTCHAR gbreve.ss02
ENCODING -1
SWIDTH 600 0
DWIDTH 17 0
BBX 12 26 2 -6
BITMAP
3060
18C0
1FC0
0F80
0000
0000
1F30
3FB0
70F0
6070
6030
E030
C030
C030
E030
6030
6070
70F0
3FB0
1F30
0030
6030
6030
7060
3FE0
0F80
ENDCHAR
STARTCHAR gcaron.ss02
ENCODING -1
SWIDTH 600 0
DWIDTH 17 0
BBX 12 26 2 -6
BITMAP
38E0
1DC0
0F80
0700
0000
0000
1F30
3FB0
70F0
6070
6030
E030
C030
C030
E030
6030
6070
70F0
3FB0
1F30
0030
6030
6030
7060
3FE0
0F80
ENDCHAR
STARTCHAR gcircumflex.ss02
ENCODING -1
SWIDTH 600 0
DWIDTH 17 0
BBX 12 26 2 -6
BITMAP
0700
0F80
0D80
18C0
0000
0000
1F30
3FB0
70F0
6070
6030
E030
C030
C030
E030
6030
6070
70F0
3FB0
1F30
0030
6030
6030
7060
3FE0
0F80
ENDCHAR
STARTCHAR uni0123.ss02
ENCODING -1
SWIDTH 600 0
DWIDTH 17 0
BBX 12 28 2 -6
BITMAP
0300
0200
0600
0700
0700
0700
0000
0000
1F30
3FB0
70F0
6070
6030
E030
C030
C030
E030
6030
6070
70F0
3FB0
1F30
0030
6030
6030
7060
3FE0
0F80
ENDCHAR
STARTCHAR gdotaccent.ss02
ENCODING -1
SWIDTH 600 0
DWIDTH 17 0
BBX 12 26 2 -6
BITMAP
0700
0700
0700
0000
0000
0000
1F30
3FB0
70F0
6070
6030
E030
C030
C030
E030
6030
6070
70F0
3FB0
1F30
0030
6030
6030
7060
3FE0
0F80
ENDCHAR
STARTCHAR g.ss03
ENCODING -1
SWIDTH 600 0
DWIDTH 17 0
BBX 14 20 2 -6
BITMAP
1FFC
7FFC
6060
C060
C060
C060
C060
60E0
7FC0
3F80
C000
C000
FFF0
7FF8
C018
C008
C00C
C018
FFF8
7FF0
ENDCHAR
STARTCHAR gbreve.ss03
ENCODING -1
SWIDTH 600 0
DWIDTH 17 0
BBX 14 26 2 -6
BITMAP
30C0
30C0
1F80
0F00
0000
0000
1FFC
7FFC
6060
C060
C060
C060
C060
60E0
7FC0
3F80
C000
C000
FFF0
7FF8
C018
C008
C00C
C018
FFF8
7FF0
ENDCHAR
STARTCHAR gcaron.ss03
ENCODING -1
SWIDTH 600 0
DWIDTH 17 0
BBX 14 26 2 -6
BITMAP
39C0
1F80
0F00
0600
0000
0000
1FFC
7FFC
6060
C060
C060
C060
C060
60E0
7FC0
3F80
C000
C000
FFF0
7FF8
C018
C008
C00C
C018
FFF8
7FF0
ENDCHAR
STARTCHAR gcircumflex.ss03
ENCODING -1
SWIDTH 600 0
DWIDTH 17 0
BBX 14 26 2 -6
BITMAP
0F00
1F00
1980
30C0
0000
0000
1FFC
7FFC
6060
C060
C060
C060
C060
60E0
7FC0
3F80
C000
C000
FFF0
7FF8
C018
C008
C00C
C018
FFF8
7FF0
ENDCHAR
STARTCHAR uni0123.ss03
ENCODING -1
SWIDTH 600 0
DWIDTH 17 0
BBX 14 28 2 -6
BITMAP
0200
0600
0600
0600
0600
0600
0000
0000
1FFC
7FFC
6060
C060
C060
C060
C060
60E0
7FC0
3F80
C000
C000
FFF0
7FF8
C018
C008
C00C
C018
FFF8
7FF0
ENDCHAR
STARTCHAR gdotaccent.ss03
ENCODING -1
SWIDTH 600 0
DWIDTH 17 0
BBX 14 26 2 -6
BITMAP
0F00
0F00
0F00
0000
0000
0000
1FFC
7FFC
6060
C060
C060
C060
C060
60E0
7FC0
3F80
C000
C000
FFF0
7FF8
C018
C008
C00C
C018
FFF8
7FF0
ENDCHAR
STARTCHAR i.ss04
ENCODING -1
SWIDTH 600 0
DWIDTH 17 0
BBX 13 20 3 0
BITMAP
0F00
0F00
0F00
0000
0000
0000
FE00
FE00
0600
0600
0600
0600
0600
0600
0600
0600
0600
0600
FFF8
FFF8
ENDCHAR
STARTCHAR dotlessi.ss04
ENCODING -1
SWIDTH 600 0
DWIDTH 17 0
BBX 13 14 3 0
BITMAP
FE00
FE00
0600
0600
0600
0600
0600
0600
0600
0600
0600
0600
FFF8
FFF8
ENDCHAR
STARTCHAR iacute.ss04
ENCODING -1
SWIDTH 600 0
DWIDTH 17 0
BBX 13 20 3 0
BITMAP
0380
0300
0700
0E00
0000
0000
FE00
FE00
0600
0600
0600
0600
0600
0600
0600
0600
0600
0600
FFF8
FFF8
ENDCHAR
STARTCHAR ibreve.ss04
ENCODING -1
SWIDTH 600 0
DWIDTH 17 0
BBX 13 20 3 0
BITMAP
30C0
30C0
1F80
0F00
0000
0000
FE00
FE00
0600
0600
0600
0600
0600
0600
0600
0600
0600
0600
FFF8
FFF8
ENDCHAR
STARTCHAR icircumflex.ss04
ENCODING -1
SWIDTH 600 0
DWIDTH 17 0
BBX 13 20 3 0
BITMAP
0F00
0F80
1980
30C0
0000
0000
FE00
FE00
0600
0600
0600
0600
0600
0600
0600
0600
0600
0600
FFF8
FFF8
ENDCHAR
STARTCHAR idieresis.ss04
ENCODING -1
SWIDTH 600 0
DWIDTH 17 0
BBX 13 20 3 0
BITMAP
39E0
39E0
39E0
0000
0000
0000
FE00
FE00
0600
0600
0600
0600
0600
0600
0600
0600
0600
0600
FFF8
FFF8
ENDCHAR
STARTCHAR i.loclTRK.ss04
ENCODING -1
SWIDTH 600 0
DWIDTH 17 0
BBX 13 20 3 0
BITMAP
0F00
0F00
0F00
0000
0000
0000
FE00
FE00
0600
0600
0600
0600
0600
0600
0600
0600
0600
0600
FFF8
FFF8
ENDCHAR
STARTCHAR uni1ECB.ss04
ENCODING -1
SWIDTH 600 0
DWIDTH 17 0
BBX 13 26 3 -6
BITMAP
0F00
0F00
0F00
0000
0000
0000
FE00
FE00
0600
0600
0600
0600
0600
0600
0600
0600
0600
0600
FFF8
FFF8
0000
0000
0000
0F00
0F00
0F00
ENDCHAR
STARTCHAR igrave.ss04
ENCODING -1
SWIDTH 600 0
DWIDTH 17 0
BBX 13 20 3 0
BITMAP
1C00
0E00
0600
0300
0000
0000
FE00
FE00
0600
0600
0600
0600
0600
0600
0600
0600
0600
0600
FFF8
FFF8
ENDCHAR
STARTCHAR imacron.ss04
ENCODING -1
SWIDTH 600 0
DWIDTH 17 0
BBX 13 19 3 0
BITMAP
3FE0
3FE0
0000
0000
0000
FE00
FE00
0600
0600
0600
0600
0600
0600
0600
0600
0600
0600
FFF8
FFF8
ENDCHAR
STARTCHAR iogonek.ss04
ENCODING -1
SWIDTH 600 0
DWIDTH 17 0
BBX 13 26 3 -6
BITMAP
0F00
0F00
0F00
0000
0000
0000
FE00
FE00
0600
0600
0600
0600
0600
0600
0600
0600
0600
0600
FFF8
FFF8
0030
0060
00C0
00C0
00F8
0078
ENDCHAR
STARTCHAR itilde.ss04
ENCODING -1
SWIDTH 600 0
DWIDTH 17 0
BBX 13 20 3 0
BITMAP
3C60
3E60
67E0
61C0
0000
0000
FE00
FE00
0600
0600
0600
0600
0600
0600
0600
0600
0600
0600
FFF8
FFF8
ENDCHAR
STARTCHAR l.ss04
ENCODING -1
SWIDTH 600 0
DWIDTH 17 0
BBX 13 20 2 0
BITMAP
FF00
FF00
0300
0300
0300
0300
0300
0300
0300
0300
0300
0300
0300
0300
0300
0300
0300
0300
FFF8
FFF8
ENDCHAR
STARTCHAR lacute.ss04
ENCODING -1
SWIDTH 600 0
DWIDTH 17 0
BBX 13 25 2 0
BITMAP
01C0
0380
0700
0000
0000
FF00
FF00
0300
0300
0300
0300
0300
0300
0300
0300
0300
0300
0300
0300
0300
0300
0300
0300
FFF8
FFF8
ENDCHAR
STARTCHAR lcaron.ss04
ENCODING -1
SWIDTH 600 0
DWIDTH 17 0
BBX 13 20 2 0
BITMAP
FF18
FF18
0318
0318
0318
0300
0300
0300
0300
0300
0300
0300
0300
0300
0300
0300
0300
0300
FFF8
FFF8
ENDCHAR
STARTCHAR uni013C.ss04
ENCODING -1
SWIDTH 600 0
DWIDTH 17 0
BBX 13 27 2 -7
BITMAP
FF00
FF00
0300
0300
0300
0300
0300
0300
0300
0300
0300
0300
0300
0300
0300
0300
0300
0300
FFF8
FFF8
0000
0000
0700
0700
0300
0200
0200
ENDCHAR
STARTCHAR ldot.ss04
ENCODING -1
SWIDTH 600 0
DWIDTH 17 0
BBX 15 20 2 0
BITMAP
FF00
FF00
0300
0300
0300
0300
0300
0300
0300
030E
030E
030E
0300
0300
0300
0300
0300
0300
FFF8
FFF8
ENDCHAR
STARTCHAR lslash.ss04
ENCODING -1
SWIDTH 600 0
DWIDTH 17 0
BBX 13 20 2 0
BITMAP
FF00
FF00
0300
0300
0300
0300
0300
0300
0360
07E0
3F00
3300
0300
0300
0300
0300
0300
0300
FFF8
FFF8
ENDCHAR
STARTCHAR zero.osf
ENCODING -1
SWIDTH 600 0
DWIDTH 17 0
BBX 13 15 2 0
BITMAP
0F80
3FE0
7060
6030
C030
C018
C018
C018
C018
C018
C030
6030
7070
3FE0
0F80
ENDCHAR
STARTCHAR one.osf
ENCODING -1
SWIDTH 600 0
DWIDTH 17 0
BBX 12 15 2 0
BITMAP
0600
0600
0600
0600
7E00
7E00
0600
0600
0600
0600
0600
0600
0600
FFF0
FFF0
ENDCHAR
STARTCHAR two.osf
ENCODING -1
SWIDTH 600 0
DWIDTH 17 0
BBX 12 15 2 0
BITMAP
0F80
3FE0
7070
6030
6030
C030
0030
00E0
03C0
0F00
3C00
7000
6000
FFF0
FFF0
ENDCHAR
STARTCHAR three.osf
ENCODING -1
SWIDTH 600 0
DWIDTH 17 0
BBX 13 19 2 -5
BITMAP
0F80
3FE0
7060
6030
E030
C030
0030
0060
07C0
07C0
0030
0030
0018
C018
C018
E038
6070
3FE0
1FC0
ENDCHAR
STARTCHAR four.osf
ENCODING -1
SWIDTH 600 0
DWIDTH 17 0
BBX 13 20 2 -5
BITMAP
03C0
03C0
06C0
06C0
0CC0
1CC0
18C0
30C0
30C0
60C0
E0C0
C0C0
C0C0
FFF8
FFF8
00C0
00C0
00C0
00C0
00C0
ENDCHAR
STARTCHAR five.osf
ENCODING -1
SWIDTH 600 0
DWIDTH 17 0
BBX 13 19 2 -5
BITMAP
7FF0
7FF0
6000
6000
6000
6000
67C0
6FE0
7070
6030
0038
0018
0018
C018
C038
6030
7070
3FE0
0FC0
ENDCHAR
STARTCHAR six.osf
ENCODING -1
SWIDTH 600 0
DWIDTH 17 0
BBX 12 19 2 0
BITMAP
1F80
3FE0
7060
6030
E030
C000
C000
C780
DFE0
D070
E030
E030
C030
C030
6030
6030
7070
3FE0
0F80
ENDCHAR
STARTCHAR seven.osf
ENCODING -1
SWIDTH 600 0
DWIDTH 17 0
BBX 12 19 2 -5
BITMAP
FFF0
FFF0
C030
C030
0070
0060
00C0
01C0
0180
0380
0300
0700
0600
0600
0E00
0C00
0C00
0C00
1C00
ENDCHAR
STARTCHAR eight.osf
ENCODING -1
SWIDTH 600 0
DWIDTH 17 0
BBX 13 19 2 0
BITMAP
1F80
3FE0
7070
6030
6030
6030
6030
7060
1DC0
1FC0
70E0
E030
C018
C018
C018
C038
6070
7FE0
1FC0
ENDCHAR
STARTCHAR nine.osf
ENCODING -1
SWIDTH 600 0
DWIDTH 17 0
BBX 12 20 2 -5
BITMAP
0F80
3FE0
7060
6030
E030
C030
C030
C030
6030
7070
3FB0
1F30
0030
0030
6030
6030
6030
7060
3FE0
0F80
ENDCHAR
STARTCHAR zero.ss05
ENCODING -1
SWIDTH 600 0
DWIDTH 17 0
BBX 13 19 2 0
BITMAP
1F80
3FE0
7070
6030
C030
C038
C018
C018
C018
C018
C018
C018
C018
C038
C030
6030
7070
3FE0
0F80
ENDCHAR
STARTCHAR zero.zero
ENCODING -1
SWIDTH 600 0
DWIDTH 17 0
BBX 13 19 2 0
BITMAP
1F80
3FE0
7070
6030
C030
C078
C0D8
C198
C318
C618
CE18
DC18
F818
F038
E030
6030
7070
3FE0
0F80
ENDCHAR
STARTCHAR zero.dnom
ENCODING -1
SWIDTH 600 0
DWIDTH 17 0
BBX 7 11 5 0
BITMAP
78
FE
C6
86
86
86
86
86
C6
FE
7C
ENDCHAR
STARTCHAR one.dnom
ENCODING -1
SWIDTH 600 0
DWIDTH 17 0
BBX 7 11 5 0
BITMAP
10
10
F0
D0
10
10
10
10
10
FE
FE
ENDCHAR
STARTCHAR two.dnom
ENCODING -1
SWIDTH 600 0
DWIDTH 17 0
BBX 7 11 5 0
BITMAP
7C
FE
C6
86
06
0C
38
70
C0
FE
FE
ENDCHAR
STARTCHAR three.dnom
ENCODING -1
SWIDTH 600 0
DWIDTH 17 0
BBX 8 11 4 0
BITMAP
3E
7F
63
03
06
1E
03
C1
43
7F
3E
ENDCHAR
STARTCHAR four.dnom
ENCODING -1
SWIDTH 600 0
DWIDTH 17 0
BBX 9 11 4 0
BITMAP
0E00
1E00
1600
3600
6600
6600
C600
FF80
FF80
0600
0600
ENDCHAR
STARTCHAR five.dnom
ENCODING -1
SWIDTH 600 0
DWIDTH 17 0
BBX 7 11 5 0
BITMAP
FE
FE
C0
D8
BC
C6
06
86
86
FE
7C
ENDCHAR
STARTCHAR six.dnom
ENCODING -1
SWIDTH 600 0
DWIDTH 17 0
BBX 7 11 5 0
BITMAP
78
FE
C6
80
BC
EE
C6
86
C6
FE
7C
ENDCHAR
STARTCHAR seven.dnom
ENCODING -1
SWIDTH 600 0
DWIDTH 17 0
BBX 7 11 5 0
BITMAP
FE
FE
86
06
0C
18
18
10
30
30
20
ENDCHAR
STARTCHAR eight.dnom
ENCODING -1
SWIDTH 600 0
DWIDTH 17 0
BBX 8 11 4 0
BITMAP
3E
7F
43
43
76
3E
63
C1
C1
7F
3E
ENDCHAR
STARTCHAR nine.dnom
ENCODING -1
SWIDTH 600 0
DWIDTH 17 0
BBX 7 11 5 0
BITMAP
7C
FE
86
86
C6
FE
06
86
C6
FE
78
ENDCHAR
STARTCHAR zero.numr
ENCODING -1
SWIDTH 600 0
DWIDTH 17 0
BBX 7 11 5 8
BITMAP
78
FE
C6
86
86
86
86
86
C6
FE
7C
ENDCHAR
STARTCHAR one.numr
ENCODING -1
SWIDTH 600 0
DWIDTH 17 0
BBX 7 11 5 8
BITMAP
10
10
F0
D0
10
10
10
10
10
FE
FE
ENDCHAR
STARTCHAR two.numr
ENCODING -1
SWIDTH 600 0
DWIDTH 17 0
BBX 7 11 5 8
BITMAP
7C
FE
C6
86
06
0C
38
70
C0
FE
FE
ENDCHAR
STARTCHAR three.numr
ENCODING -1
SWIDTH 600 0
DWIDTH 17 0
BBX 8 11 4 8
BITMAP
3E
7F
63
03
1E
03
01
C1
63
7F
1C
ENDCHAR
STARTCHAR four.numr
ENCODING -1
SWIDTH 600 0
DWIDTH 17 0
BBX 9 11 4 8
BITMAP
0E00
1E00
1600
3600
6600
6600
C600
FF80
FF80
0600
0600
ENDCHAR
STARTCHAR five.numr
ENCODING -1
SWIDTH 600 0
DWIDTH 17 0
BBX 7 11 5 8
BITMAP
FE
FE
C0
D8
BC
C6
06
86
86
FE
7C
ENDCHAR
STARTCHAR six.numr
ENCODING -1
SWIDTH 600 0
DWIDTH 17 0
BBX 7 11 5 8
BITMAP
78
FE
C6
86
80
BC
C6
86
86
FE
7C
ENDCHAR
STARTCHAR seven.numr
ENCODING -1
SWIDTH 600 0
DWIDTH 17 0
BBX 7 11 5 8
BITMAP
FE
FE
86
06
0C
18
18
10
30
30
20
ENDCHAR
STARTCHAR eight.numr
ENCODING -1
SWIDTH 600 0
DWIDTH 17 0
BBX 8 11 4 8
BITMAP
3E
7F
43
63
3E
76
43
C1
C3
7F
3E
ENDCHAR
STARTCHAR nine.numr
ENCODING -1
SWIDTH 600 0
DWIDTH 17 0
BBX 7 11 5 8
BITMAP
7C
FE
86
86
C6
FE
06
86
C6
FE
78
ENDCHAR
STARTCHAR uni2080.zero
ENCODING -1
SWIDTH 600 0
DWIDTH 17 0
BBX 7 11 5 -2
BITMAP
78
FE
C6
86
8E
96
A6
C6
C6
FE
7C
ENDCHAR
STARTCHAR zero.dnom.zero
ENCODING -1
SWIDTH 600 0
DWIDTH 17 0
BBX 7 11 5 0
BITMAP
78
FE
C6
86
8E
96
A6
C6
C6
FE
7C
ENDCHAR
STARTCHAR zero.numr.zero
ENCODING -1
SWIDTH 600 0
DWIDTH 17 0
BBX 7 11 5 8
BITMAP
78
FE
C6
86
8E
96
A6
C6
C6
FE
7C
ENDCHAR
STARTCHAR uni2070.zero
ENCODING -1
SWIDTH 600 0
DWIDTH 17 0
BBX 7 11 5 10
BITMAP
78
FE
C6
86
8E
96
A6
C6
C6
FE
7C
ENDCHAR
STARTCHAR exclamdown.case
ENCODING -1
SWIDTH 600 0
DWIDTH 17 0
BBX 3 19 7 0
BITMAP
E0
E0
E0
00
00
00
40
C0
C0
C0
C0
C0
C0
E0
E0
E0
E0
E0
E0
ENDCHAR
STARTCHAR questiondown.case
ENCODING -1
SWIDTH 600 0
DWIDTH 17 0
BBX 11 19 3 0
BITMAP
0E00
0E00
0E00
0000
0000
0000
0C00
0C00
0C00
1C00
3800
7000
E000
C060
C060
C0E0
E1C0
7F80
1F00
ENDCHAR
STARTCHAR parenleft.case
ENCODING -1
SWIDTH 600 0
DWIDTH 17 0
BBX 8 25 5 -3
BITMAP
03
0F
1C
38
70
60
E0
C0
C0
C0
C0
C0
C0
C0
C0
C0
C0
C0
60
60
30
38
1E
0F
01
ENDCHAR
STARTCHAR parenright.case
ENCODING -1
SWIDTH 600 0
DWIDTH 17 0
BBX 8 25 4 -3
BITMAP
C0
F0
38
1C
0C
06
06
03
03
03
03
03
03
03
03
03
03
07
06
06
0C
1C
78
E0
80
ENDCHAR
STARTCHAR braceleft.case
ENCODING -1
SWIDTH 600 0
DWIDTH 17 0
BBX 11 25 3 -3
BITMAP
03E0
07E0
0600
0600
0600
0600
0600
0600
0600
0600
0600
0C00
F800
F800
0C00
0600
0600
0600
0600
0600
0600
0600
0600
07E0
03E0
ENDCHAR
STARTCHAR braceright.case
ENCODING -1
SWIDTH 600 0
DWIDTH 17 0
BBX 12 25 2 -3
BITMAP
FC00
FE00
0600
0600
0600
0600
0600
0600
0600
0600
0600
0300
03F0
03F0
0700
0600
0600
0600
0600
0600
0600
0600
0600
FE00
FC00
ENDCHAR
STARTCHAR bracketleft.case
ENCODING -1
SWIDTH 600 0
DWIDTH 17 0
BBX 9 25 5 -3
BITMAP
FF80
FF80
E000
E000
E000
E000
E000
E000
E000
E000
E000
E000
E000
E000
E000
E000
E000
E000
E000
E000
E000
E000
E000
FF80
FF80
ENDCHAR
STARTCHAR bracketright.case
ENCODING -1
SWIDTH 600 0
DWIDTH 17 0
BBX 8 25 3 -3
BITMAP
FF
FF
03
03
03
03
03
03
03
03
03
03
03
03
03
03
03
03
03
03
03
03
03
FF
FF
ENDCHAR
STARTCHAR hyphen.case
ENCODING -1
SWIDTH 600 0
DWIDTH 17 0
BBX 8 2 4 9
BITMAP
FF
FF
ENDCHAR
STARTCHAR endash.case
ENCODING -1
SWIDTH 600 0
DWIDTH 17 0
BBX 13 2 2 9
BITMAP
FFF8
FFF8
ENDCHAR
STARTCHAR emdash.case
ENCODING -1
SWIDTH 600 0
DWIDTH 17 0
BBX 17 2 0 9
BITMAP
FFFF80
FFFF80
ENDCHAR
STARTCHAR guillemotleft.case
ENCODING -1
SWIDTH 600 0
DWIDTH 17 0
BBX 11 11 3 4
BITMAP
1CE0
18C0
3180
7380
6300
C600
6300
7380
3180
18C0
1CE0
ENDCHAR
STARTCHAR guillemotright.case
ENCODING -1
SWIDTH 600 0
DWIDTH 17 0
BBX 11 11 3 4
BITMAP
C600
6300
7380
3180
18C0
1CE0
18C0
3180
7180
6300
C700
ENDCHAR
STARTCHAR guilsinglleft.case
ENCODING -1
SWIDTH 600 0
DWIDTH 17 0
BBX 6 11 5 4
BITMAP
1C
18
30
70
60
C0
60
70
30
18
1C
ENDCHAR
STARTCHAR guilsinglright.case
ENCODING -1
SWIDTH 600 0
DWIDTH 17 0
BBX 6 11 6 4
BITMAP
C0
60
70
30
18
1C
18
30
30
60
E0
ENDCHAR
STARTCHAR uni0308.case
ENCODING -1
SWIDTH 0 0
DWIDTH 0 0
BBX 9 3 -13 16
BITMAP
E380
E380
E380
ENDCHAR
STARTCHAR uni0307.case
ENCODING -1
SWIDTH 0 0
DWIDTH 0 0
BBX 4 3 -11 16
BITMAP
F0
F0
F0
ENDCHAR
STARTCHAR gravecomb.case
ENCODING -1
SWIDTH 0 0
DWIDTH 0 0
BBX 6 4 -12 15
BITMAP
E0
70
38
1C
ENDCHAR
STARTCHAR acutecomb.case
ENCODING -1
SWIDTH 0 0
DWIDTH 0 0
BBX 6 4 -12 15
BITMAP
1C
38
70
E0
ENDCHAR
STARTCHAR uni030B.case
ENCODING -1
SWIDTH 0 0
DWIDTH 0 0
BBX 10 4 -12 15
BITMAP
1DC0
3380
6700
CE00
ENDCHAR
STARTCHAR uni0302.case
ENCODING -1
SWIDTH 0 0
DWIDTH 0 0
BBX 9 4 -13 15
BITMAP
1C00
3E00
7700
C180
ENDCHAR
STARTCHAR uni030C.case
ENCODING -1
SWIDTH 0 0
DWIDTH 0 0
BBX 9 4 -13 15
BITMAP
E380
7700
3E00
1C00
ENDCHAR
STARTCHAR uni0306.case
ENCODING -1
SWIDTH 0 0
DWIDTH 0 0
BBX 9 4 -13 15
BITMAP
C180
6300
7F00
1E00
ENDCHAR
STARTCHAR uni030A.case
ENCODING -1
SWIDTH 0 0
DWIDTH 0 0
BBX 7 7 -12 15
BITMAP
38
7C
C6
C6
C6
7C
38
ENDCHAR
STARTCHAR tildecomb.case
ENCODING -1
SWIDTH 0 0
DWIDTH 0 0
BBX 9 4 -13 15
BITMAP
7080
FD80
CF80
0300
ENDCHAR
STARTCHAR uni0304.case
ENCODING -1
SWIDTH 0 0
DWIDTH 0 0
BBX 9 2 -13 16
BITMAP
FF80
FF80
ENDCHAR
ENDFONT
